<?xml version="1.0" encoding="UTF-8" standalone="no"?>
<!-- Created with Inkscape (http://www.inkscape.org/) -->

<svg
   xmlns:dc="http://purl.org/dc/elements/1.1/"
   xmlns:cc="http://creativecommons.org/ns#"
   xmlns:rdf="http://www.w3.org/1999/02/22-rdf-syntax-ns#"
   xmlns:svg="http://www.w3.org/2000/svg"
   xmlns="http://www.w3.org/2000/svg"
   xmlns:sodipodi="http://sodipodi.sourceforge.net/DTD/sodipodi-0.dtd"
   xmlns:inkscape="http://www.inkscape.org/namespaces/inkscape"
   width="4in"
   height="3.25in"
   viewBox="0 0 101.6 82.55"
   version="1.1"
   id="svg8"
   inkscape:version="0.92.2 (5c3e80d, 2017-08-06)"
   sodipodi:docname="frames.svg"
   inkscape:export-filename="/home/messner/projects/neml/doc/sphinx/cp-frames.png"
   inkscape:export-xdpi="299.98199"
   inkscape:export-ydpi="299.98199">
  <sodipodi:namedview
     id="base"
     pagecolor="#ffffff"
     bordercolor="#666666"
     borderopacity="1.0"
     inkscape:pageopacity="0.0"
     inkscape:pageshadow="2"
     inkscape:zoom="1.979899"
     inkscape:cx="232.34616"
     inkscape:cy="142.67199"
     inkscape:document-units="mm"
     inkscape:current-layer="layer1"
     showgrid="false"
     units="in"
     inkscape:window-width="1944"
     inkscape:window-height="959"
     inkscape:window-x="524"
     inkscape:window-y="247"
     inkscape:window-maximized="0"
     showguides="true"
     inkscape:guide-bbox="true" />
  <defs
     id="defs2">
    <marker
       inkscape:isstock="true"
       style="overflow:visible;"
       id="marker1759"
       refX="0.0"
       refY="0.0"
       orient="auto"
       inkscape:stockid="Arrow1Mend">
      <path
         transform="scale(0.4) rotate(180) translate(10,0)"
         style="fill-rule:evenodd;stroke:#000000;stroke-width:1pt;stroke-opacity:1;fill:#000000;fill-opacity:1"
         d="M 0.0,0.0 L 5.0,-5.0 L -12.5,0.0 L 5.0,5.0 L 0.0,0.0 z "
         id="path1757" />
    </marker>
    <marker
       inkscape:collect="always"
       inkscape:stockid="Arrow1Mend"
       orient="auto"
       refY="0.0"
       refX="0.0"
       id="marker1631"
       style="overflow:visible;"
       inkscape:isstock="true">
      <path
         id="path1629"
         d="M 0.0,0.0 L 5.0,-5.0 L -12.5,0.0 L 5.0,5.0 L 0.0,0.0 z "
         style="fill-rule:evenodd;stroke:#000000;stroke-width:1pt;stroke-opacity:1;fill:#000000;fill-opacity:1"
         transform="scale(0.4) rotate(180) translate(10,0)" />
    </marker>
    <marker
       inkscape:collect="always"
       inkscape:isstock="true"
       style="overflow:visible;"
       id="marker1607"
       refX="0.0"
       refY="0.0"
       orient="auto"
       inkscape:stockid="Arrow1Mend">
      <path
         transform="scale(0.4) rotate(180) translate(10,0)"
         style="fill-rule:evenodd;stroke:#000000;stroke-width:1pt;stroke-opacity:1;fill:#000000;fill-opacity:1"
         d="M 0.0,0.0 L 5.0,-5.0 L -12.5,0.0 L 5.0,5.0 L 0.0,0.0 z "
         id="path1605" />
    </marker>
    <marker
       inkscape:isstock="true"
       style="overflow:visible;"
       id="Arrow1Mend"
       refX="0.0"
       refY="0.0"
       orient="auto"
       inkscape:stockid="Arrow1Mend">
      <path
         transform="scale(0.4) rotate(180) translate(10,0)"
         style="fill-rule:evenodd;stroke:#000000;stroke-width:1pt;stroke-opacity:1;fill:#000000;fill-opacity:1"
         d="M 0.0,0.0 L 5.0,-5.0 L -12.5,0.0 L 5.0,5.0 L 0.0,0.0 z "
         id="path1280" />
    </marker>
    <marker
       inkscape:isstock="true"
       style="overflow:visible"
       id="Arrow1Mstart"
       refX="0.0"
       refY="0.0"
       orient="auto"
       inkscape:stockid="Arrow1Mstart">
      <path
         transform="scale(0.4) translate(10,0)"
         style="fill-rule:evenodd;stroke:#000000;stroke-width:1pt;stroke-opacity:1;fill:#000000;fill-opacity:1"
         d="M 0.0,0.0 L 5.0,-5.0 L -12.5,0.0 L 5.0,5.0 L 0.0,0.0 z "
         id="path1277" />
    </marker>
  </defs>
  <metadata
     id="metadata5">
    <rdf:RDF>
      <cc:Work
         rdf:about="">
        <dc:format>image/svg+xml</dc:format>
        <dc:type
           rdf:resource="http://purl.org/dc/dcmitype/StillImage" />
        <dc:title></dc:title>
      </cc:Work>
    </rdf:RDF>
  </metadata>
  <g
     transform="translate(0,-214.44998)"
     id="layer1"
     inkscape:groupmode="layer"
     inkscape:label="Layer 1">
    <path
       sodipodi:nodetypes="zzzzzzzz"
       inkscape:connector-curvature="0"
       id="path815"
       d="m 1.1267629,233.23973 c 0.2317371,-3.35168 3.9199954,-8.51069 8.7987874,-8.68177 4.8787917,-0.17109 10.4823747,6.14167 12.3834777,10.54215 1.901104,4.40047 0.819783,9.1611 -0.814703,12.7126 -1.634485,3.55149 -3.249085,7.25446 -7.658203,7.59654 -4.4091177,0.34209 -11.6958878,-5.07701 -12.383478,-8.8368 -0.68759028,-3.7598 4.8008973,-4.11191 4.7252743,-6.8214 -0.07562,-2.70948 -5.28289258,-3.15965 -5.0511554,-6.51132 z"
       style="fill:none;fill-rule:evenodd;stroke:#000000;stroke-width:0.5291667;stroke-linecap:butt;stroke-linejoin:miter;stroke-miterlimit:4;stroke-dasharray:none;stroke-opacity:1" />
    <path
       style="fill:none;fill-rule:evenodd;stroke:#000000;stroke-width:0.5291667;stroke-linecap:butt;stroke-linejoin:miter;stroke-miterlimit:4;stroke-dasharray:none;stroke-opacity:1"
       d="m 33.15353,233.23973 c 0.231737,-3.35168 3.919996,-8.51069 8.798788,-8.68177 4.878792,-0.17109 10.482375,6.14167 12.383478,10.54215 1.901104,4.40047 0.819783,9.1611 -0.814703,12.7126 -1.634485,3.55149 -3.249085,7.25446 -7.658203,7.59654 -4.409118,0.34209 -11.695889,-5.07701 -12.383479,-8.8368 -0.68759,-3.7598 4.800898,-4.11191 4.725275,-6.8214 -0.07562,-2.70948 -5.282893,-3.15965 -5.051156,-6.51132 z"
       id="path817"
       inkscape:connector-curvature="0"
       sodipodi:nodetypes="zzzzzzzz" />
    <path
       sodipodi:nodetypes="zzzzzzzz"
       inkscape:connector-curvature="0"
       id="path819"
       d="m 77.67318,233.23973 c 0.231737,-3.35168 3.919996,-8.51069 8.798788,-8.68177 4.878792,-0.17109 10.482375,6.14167 12.383478,10.54215 1.901104,4.40047 0.819783,9.1611 -0.814703,12.7126 -1.634485,3.55149 -3.249085,7.25446 -7.658203,7.59654 -4.409118,0.34209 -11.695889,-5.07701 -12.383479,-8.8368 -0.68759,-3.7598 4.800898,-4.11191 4.725275,-6.8214 -0.07562,-2.70948 -5.282893,-3.15965 -5.051156,-6.51132 z"
       style="fill:none;fill-rule:evenodd;stroke:#000000;stroke-width:0.5291667;stroke-linecap:butt;stroke-linejoin:miter;stroke-miterlimit:4;stroke-dasharray:none;stroke-opacity:1" />
    <path
       style="fill:none;fill-rule:evenodd;stroke:#000000;stroke-width:0.5291667;stroke-linecap:butt;stroke-linejoin:miter;stroke-miterlimit:4;stroke-dasharray:none;stroke-opacity:1"
       d="m 34.09847,273.81269 c 0.231737,-3.35168 3.919996,-8.51069 8.798788,-8.68177 4.878792,-0.17109 10.482375,6.14167 12.383478,10.54215 1.901104,4.40047 0.819783,9.1611 -0.814703,12.7126 -1.634485,3.55149 -3.249085,7.25446 -7.658203,7.59654 -4.409118,0.34209 -11.695889,-5.07701 -12.383479,-8.8368 -0.68759,-3.7598 4.800898,-4.11191 4.725275,-6.8214 -0.07562,-2.70948 -5.282893,-3.15965 -5.051156,-6.51132 z"
       id="path821"
       inkscape:connector-curvature="0"
       sodipodi:nodetypes="zzzzzzzz" />
    <g
       transform="matrix(0.75,0,0,0.75,-9.5081518,227.80547)"
       id="g854">
      <g
         style="font-style:normal;font-variant:normal;font-weight:normal;font-stretch:normal;letter-spacing:normal;word-spacing:normal;text-anchor:start;fill:none;fill-opacity:1;fill-rule:evenodd;stroke:#000000;stroke-linecap:butt;stroke-linejoin:miter;stroke-miterlimit:10.43299961;stroke-dasharray:none;stroke-dashoffset:0;stroke-opacity:1"
         word-spacing="normal"
         letter-spacing="normal"
         font-size-adjust="none"
         font-stretch="normal"
         font-weight="normal"
         font-variant="normal"
         font-style="normal"
         stroke-miterlimit="10.433"
         xml:space="preserve"
         transform="matrix(0.10885714,0,0,-0.10885714,-19.05,76.2)"
         id="content"><path
           style="fill:#000000;stroke-width:0"
           inkscape:connector-curvature="0"
           id="path849"
           d="M 489.25,414.28 H 488 c -0.25,-1.3 -0.45,-2.46 -0.89,-3.64 -0.25,-0.8 -0.4,-1.21 -3.29,-1.21 h -3.99 c 0.64,2.8 2.19,5.19 4.44,8.47 2.34,3.55 4.37,6.99 4.37,10.92 0,6.93 -6.71,12.5 -15.14,12.5 -8.56,0 -15.18,-5.68 -15.18,-12.5 0,-3.93 2.03,-7.37 4.37,-10.92 2.19,-3.28 3.78,-5.67 4.44,-8.47 h -3.99 c -2.89,0 -3.04,0.41 -3.29,1.16 -0.39,1.14 -0.64,2.44 -0.89,3.69 h -1.25 l 1.65,-8.08 h 7.97 c 1.1,0 1.24,0 1.24,1.05 0,3.48 -1.53,7.87 -2.69,11.06 -1.05,2.89 -2.44,6.83 -2.44,10.56 0,7.97 5.49,11.36 10.02,11.36 4.78,0 10.06,-3.59 10.06,-11.36 0,-3.73 -1.34,-7.53 -2.8,-11.61 -0.73,-2.09 -2.33,-6.58 -2.33,-10.01 0,-1.05 0.15,-1.05 1.29,-1.05 h 7.92 z" /><path
           style="fill:#000000;stroke-width:0"
           inkscape:connector-curvature="0"
           id="path851"
           d="m 510.02,408.03 -0.01,0.36 -0.02,0.34 -0.04,0.34 -0.06,0.33 -0.07,0.32 -0.09,0.31 -0.1,0.3 -0.11,0.28 -0.13,0.28 -0.14,0.27 -0.16,0.25 -0.16,0.25 -0.18,0.23 -0.19,0.22 -0.2,0.22 -0.21,0.2 -0.22,0.19 -0.23,0.17 -0.24,0.17 -0.25,0.15 -0.25,0.15 -0.27,0.13 -0.27,0.12 -0.28,0.1 -0.28,0.1 -0.29,0.08 -0.3,0.07 -0.3,0.06 -0.3,0.04 -0.31,0.04 -0.32,0.01 -0.32,0.01 c -5.17,0 -10.04,-4.84 -10.04,-9.61 0,-3.48 2.54,-6.09 6.34,-6.09 l 0.03,0.97 c -1.73,0 -3.48,1.12 -3.48,3.87 0,1.42 0.67,4.85 2.03,6.83 1.5,2.16 3.51,3.06 5.08,3.06 1.89,0 3.48,-1.29 3.48,-3.87 0,-0.83 -0.41,-4.28 -1.95,-6.72 -1.32,-2.05 -3.41,-3.17 -5.16,-3.17 v 0 l -0.03,-0.97 c 4.98,0 10,4.59 10,9.61 z" /></g>    </g>
    <g
       transform="matrix(0.75,0,0,0.75,21.457606,228.37244)"
       id="g886">
      <g
         style="font-style:normal;font-variant:normal;font-weight:normal;font-stretch:normal;letter-spacing:normal;word-spacing:normal;text-anchor:start;fill:none;fill-opacity:1;fill-rule:evenodd;stroke:#000000;stroke-linecap:butt;stroke-linejoin:miter;stroke-miterlimit:10.43299961;stroke-dasharray:none;stroke-dashoffset:0;stroke-opacity:1"
         id="g884"
         transform="matrix(0.10885714,0,0,-0.10885714,-19.05,76.2)"
         xml:space="preserve"
         stroke-miterlimit="10.433"
         font-style="normal"
         font-variant="normal"
         font-weight="normal"
         font-stretch="normal"
         font-size-adjust="none"
         letter-spacing="normal"
         word-spacing="normal"><path
           style="fill:#000000;stroke-width:0"
           inkscape:connector-curvature="0"
           d="M 489.25,414.28 H 488 c -0.25,-1.3 -0.45,-2.46 -0.89,-3.64 -0.25,-0.8 -0.4,-1.21 -3.29,-1.21 h -3.99 c 0.64,2.8 2.19,5.19 4.44,8.47 2.34,3.55 4.37,6.99 4.37,10.92 0,6.93 -6.71,12.5 -15.14,12.5 -8.56,0 -15.18,-5.68 -15.18,-12.5 0,-3.93 2.03,-7.37 4.37,-10.92 2.19,-3.28 3.78,-5.67 4.44,-8.47 h -3.99 c -2.89,0 -3.04,0.41 -3.29,1.16 -0.39,1.14 -0.64,2.44 -0.89,3.69 h -1.25 l 1.65,-8.08 h 7.97 c 1.1,0 1.24,0 1.24,1.05 0,3.48 -1.53,7.87 -2.69,11.06 -1.05,2.89 -2.44,6.83 -2.44,10.56 0,7.97 5.49,11.36 10.02,11.36 4.78,0 10.06,-3.59 10.06,-11.36 0,-3.73 -1.34,-7.53 -2.8,-11.61 -0.73,-2.09 -2.33,-6.58 -2.33,-10.01 0,-1.05 0.15,-1.05 1.29,-1.05 h 7.92 z"
           id="path880" /><path
           style="fill:#000000;stroke-width:0"
           inkscape:connector-curvature="0"
           d="m 501.35,421.9 v 0.01 0 0 0.01 h 0.01 v 0.01 0.01 0 l 0.01,0.01 v 0.01 0.01 l 0.01,0.02 v 0.02 l 0.01,0.02 v 0.02 l 0.01,0.02 0.01,0.02 v 0.03 l 0.01,0.02 0.01,0.05 0.01,0.04 0.01,0.03 v 0.02 l 0.01,0.02 v 0.02 l 0.01,0.02 v 0.02 0.02 l 0.01,0.01 v 0.01 0.01 0 0.01 0 l 0.01,0.01 v 0 0.01 0 0 0.01 0 c 0,0.19 -0.14,0.5 -0.56,0.5 -0.69,0 -3.6,-0.28 -4.46,-0.36 -0.25,-0.03 -0.73,-0.06 -0.73,-0.8 0,-0.48 0.48,-0.48 0.87,-0.48 1.68,0 1.68,-0.25 1.68,-0.53 0,-0.24 -0.08,-0.46 -0.15,-0.77 l -4.32,-17.2 c -0.11,-0.36 -0.14,-0.74 -0.14,-1.08 0,-2.23 1.98,-3.31 3.65,-3.31 0.85,0 1.89,0.28 2.8,1.84 0.73,1.28 1.22,3.35 1.22,3.49 0,0.45 -0.46,0.45 -0.56,0.45 -0.49,0 -0.55,-0.2 -0.69,-0.84 -0.46,-1.74 -1.13,-3.97 -2.63,-3.97 -0.93,0 -1.17,0.87 -1.17,1.7 0,0.39 0.09,1.05 0.2,1.44 z"
           id="path882" /></g>    </g>
    <g
       transform="matrix(0.75,0,0,0.75,21.556665,268.71861)"
       id="g926">
      <g
         style="font-style:normal;font-variant:normal;font-weight:normal;font-stretch:normal;letter-spacing:normal;word-spacing:normal;text-anchor:start;fill:none;fill-opacity:1;fill-rule:evenodd;stroke:#000000;stroke-linecap:butt;stroke-linejoin:miter;stroke-miterlimit:10.43299961;stroke-dasharray:none;stroke-dashoffset:0;stroke-opacity:1"
         word-spacing="normal"
         letter-spacing="normal"
         font-size-adjust="none"
         font-stretch="normal"
         font-weight="normal"
         font-variant="normal"
         font-style="normal"
         stroke-miterlimit="10.433"
         xml:space="preserve"
         transform="matrix(0.10885714,0,0,-0.10885714,-19.05,76.2)"
         id="g924"><path
           style="fill:#000000;stroke-width:0"
           inkscape:connector-curvature="0"
           id="path920"
           d="M 489.25,414.28 H 488 c -0.25,-1.3 -0.45,-2.46 -0.89,-3.64 -0.25,-0.8 -0.4,-1.21 -3.29,-1.21 h -3.99 c 0.64,2.8 2.19,5.19 4.44,8.47 2.34,3.55 4.37,6.99 4.37,10.92 0,6.93 -6.71,12.5 -15.14,12.5 -8.56,0 -15.18,-5.68 -15.18,-12.5 0,-3.93 2.03,-7.37 4.37,-10.92 2.19,-3.28 3.78,-5.67 4.44,-8.47 h -3.99 c -2.89,0 -3.04,0.41 -3.29,1.16 -0.39,1.14 -0.64,2.44 -0.89,3.69 h -1.25 l 1.65,-8.08 h 7.97 c 1.1,0 1.24,0 1.24,1.05 0,3.48 -1.53,7.87 -2.69,11.06 -1.05,2.89 -2.44,6.83 -2.44,10.56 0,7.97 5.49,11.36 10.02,11.36 4.78,0 10.06,-3.59 10.06,-11.36 0,-3.73 -1.34,-7.53 -2.8,-11.61 -0.73,-2.09 -2.33,-6.58 -2.33,-10.01 0,-1.05 0.15,-1.05 1.29,-1.05 h 7.92 z" /><path
           style="fill:#000000;stroke-width:0"
           inkscape:connector-curvature="0"
           id="path922"
           d="m 506.79,412.11 -0.12,-0.03 -0.11,-0.02 -0.11,-0.03 -0.1,-0.04 -0.1,-0.03 -0.1,-0.04 -0.09,-0.05 -0.09,-0.05 -0.08,-0.05 -0.08,-0.05 -0.07,-0.06 -0.07,-0.06 -0.07,-0.06 -0.06,-0.07 -0.06,-0.06 -0.06,-0.07 -0.05,-0.07 -0.05,-0.07 -0.04,-0.07 -0.05,-0.08 -0.03,-0.07 -0.04,-0.08 -0.03,-0.07 -0.03,-0.08 -0.02,-0.07 -0.02,-0.08 -0.02,-0.08 -0.01,-0.07 -0.01,-0.08 -0.01,-0.07 v -0.08 L 505,410.15 c 0,-0.94 0.74,-1.28 1.36,-1.28 0.77,0 1.99,0.55 1.99,2.22 0,2.37 -2.72,3.03 -4.6,3.03 -5.23,0 -10.07,-4.8 -10.07,-9.64 0,-3 2.09,-6.06 6.45,-6.06 5.89,0 8.64,3.44 8.64,3.94 0,0.2 -0.31,0.59 -0.59,0.59 -0.21,0 -0.29,-0.08 -0.57,-0.36 -2.72,-3.2 -6.79,-3.2 -7.42,-3.2 -2.5,0 -3.62,1.7 -3.62,3.87 0,1 0.5,4.8 2.31,7.2 1.31,1.72 3.12,2.69 4.87,2.69 0.49,0 2.16,-0.06 3.04,-1.04 z" /></g>    </g>
    <g
       transform="matrix(0.75,0,0,0.75,65.810705,229.21151)"
       id="g972">
      <g
         style="font-style:normal;font-variant:normal;font-weight:normal;font-stretch:normal;letter-spacing:normal;word-spacing:normal;text-anchor:start;fill:none;fill-opacity:1;fill-rule:evenodd;stroke:#000000;stroke-linecap:butt;stroke-linejoin:miter;stroke-miterlimit:10.43299961;stroke-dasharray:none;stroke-dashoffset:0;stroke-opacity:1"
         id="g970"
         transform="matrix(0.10885714,0,0,-0.10885714,-19.05,76.2)"
         xml:space="preserve"
         stroke-miterlimit="10.433"
         font-style="normal"
         font-variant="normal"
         font-weight="normal"
         font-stretch="normal"
         font-size-adjust="none"
         letter-spacing="normal"
         word-spacing="normal"><path
           style="fill:#000000;stroke-width:0"
           inkscape:connector-curvature="0"
           d="M 489.25,414.28 H 488 c -0.25,-1.3 -0.45,-2.46 -0.89,-3.64 -0.25,-0.8 -0.4,-1.21 -3.29,-1.21 h -3.99 c 0.64,2.8 2.19,5.19 4.44,8.47 2.34,3.55 4.37,6.99 4.37,10.92 0,6.93 -6.71,12.5 -15.14,12.5 -8.56,0 -15.18,-5.68 -15.18,-12.5 0,-3.93 2.03,-7.37 4.37,-10.92 2.19,-3.28 3.78,-5.67 4.44,-8.47 h -3.99 c -2.89,0 -3.04,0.41 -3.29,1.16 -0.39,1.14 -0.64,2.44 -0.89,3.69 h -1.25 l 1.65,-8.08 h 7.97 c 1.1,0 1.24,0 1.24,1.05 0,3.48 -1.53,7.87 -2.69,11.06 -1.05,2.89 -2.44,6.83 -2.44,10.56 0,7.97 5.49,11.36 10.02,11.36 4.78,0 10.06,-3.59 10.06,-11.36 0,-3.73 -1.34,-7.53 -2.8,-11.61 -0.73,-2.09 -2.33,-6.58 -2.33,-10.01 0,-1.05 0.15,-1.05 1.29,-1.05 h 7.92 z"
           id="path968" /></g>    </g>
    <g
       transform="matrix(0.75,0,0,0.75,22.502299,196.38488)"
       id="g1024">
      <g
         style="font-style:normal;font-variant:normal;font-weight:normal;font-stretch:normal;letter-spacing:normal;word-spacing:normal;text-anchor:start;fill:none;fill-opacity:1;fill-rule:evenodd;stroke:#000000;stroke-linecap:butt;stroke-linejoin:miter;stroke-miterlimit:10.43299961;stroke-dasharray:none;stroke-dashoffset:0;stroke-opacity:1"
         word-spacing="normal"
         letter-spacing="normal"
         font-size-adjust="none"
         font-stretch="normal"
         font-weight="normal"
         font-variant="normal"
         font-style="normal"
         stroke-miterlimit="10.433"
         xml:space="preserve"
         transform="matrix(0.10885714,0,0,-0.10885714,-19.05,76.2)"
         id="g1022"><path
           style="fill:#000000;stroke-width:0"
           inkscape:connector-curvature="0"
           id="path1020"
           d="m 487.6,440.07 h -30.14 v -2.34 h 5.39 v -29.19 h -5.39 v -2.34 c 1.9,0.16 6.93,0.16 9.12,0.16 2.44,0 7.88,0 10.06,-0.16 v 2.34 h -6.73 V 422 h 2.5 c 4.78,0 5.23,-2.14 5.23,-5.83 h 2.35 v 14 h -2.35 c 0,-3.69 -0.4,-5.83 -5.23,-5.83 h -2.5 v 13.39 h 6.98 c 8.02,0 9.18,-3.83 9.91,-9.66 h 2.34 z" /></g>    </g>
    <g
       transform="matrix(0.75,0,0,0.75,35.727371,217.66245)"
       id="g1084">
      <g
         style="font-style:normal;font-variant:normal;font-weight:normal;font-stretch:normal;letter-spacing:normal;word-spacing:normal;text-anchor:start;fill:none;fill-opacity:1;fill-rule:evenodd;stroke:#000000;stroke-linecap:butt;stroke-linejoin:miter;stroke-miterlimit:10.43299961;stroke-dasharray:none;stroke-dashoffset:0;stroke-opacity:1"
         id="g1082"
         transform="matrix(0.10885714,0,0,-0.10885714,-19.05,76.2)"
         xml:space="preserve"
         stroke-miterlimit="10.433"
         font-style="normal"
         font-variant="normal"
         font-weight="normal"
         font-stretch="normal"
         font-size-adjust="none"
         letter-spacing="normal"
         word-spacing="normal"><path
           style="fill:#000000;stroke-width:0"
           inkscape:connector-curvature="0"
           d="m 487.6,440.07 h -30.14 v -2.34 h 5.39 v -29.19 h -5.39 v -2.34 c 1.9,0.16 6.93,0.16 9.12,0.16 2.44,0 7.88,0 10.06,-0.16 v 2.34 h -6.73 V 422 h 2.5 c 4.78,0 5.23,-2.14 5.23,-5.83 h 2.35 v 14 h -2.35 c 0,-3.69 -0.4,-5.83 -5.23,-5.83 h -2.5 v 13.39 h 6.98 c 8.02,0 9.18,-3.83 9.91,-9.66 h 2.34 z"
           id="path1078" /><path
           style="fill:#000000;stroke-width:0"
           inkscape:connector-curvature="0"
           d="m 499.33,432.14 h 0.1 0.1 0.12 0.12 0.14 l 0.14,0.01 h 0.15 l 0.15,0.01 0.16,0.01 0.17,0.01 h 0.18 l 0.17,0.02 0.19,0.01 0.19,0.01 0.38,0.04 0.4,0.04 0.4,0.05 0.41,0.06 0.4,0.07 0.4,0.08 0.2,0.04 0.2,0.05 0.19,0.05 0.19,0.05 0.18,0.06 0.18,0.06 c 2.58,0.91 3.06,2.58 3.06,3.63 0,1.92 -1.92,3.06 -4.32,3.06 v -0.97 c 1.53,0 2.82,-0.77 2.82,-2.09 0,-3.38 -5.89,-3.38 -7.39,-3.38 h -1.7 c 1.42,5.05 5.3,5.47 6.27,5.47 v 0.97 c -4.18,0 -9.83,-3.2 -9.83,-9.16 0,-3.51 2.2,-6.54 6.28,-6.54 5.89,0 8.64,3.43 8.64,3.93 0,0.21 -0.31,0.6 -0.59,0.6 -0.21,0 -0.29,-0.08 -0.57,-0.36 -2.72,-3.21 -6.79,-3.21 -7.42,-3.21 -2.09,0 -3.48,1.39 -3.48,4.22 0,0.49 0,1.19 0.42,3.1 z"
           id="path1080" /></g>    </g>
    <g
       transform="matrix(0.75,0,0,0.75,3.5410078,217.09549)"
       id="g1152">
      <g
         style="font-style:normal;font-variant:normal;font-weight:normal;font-stretch:normal;letter-spacing:normal;word-spacing:normal;text-anchor:start;fill:none;fill-opacity:1;fill-rule:evenodd;stroke:#000000;stroke-linecap:butt;stroke-linejoin:miter;stroke-miterlimit:10.43299961;stroke-dasharray:none;stroke-dashoffset:0;stroke-opacity:1"
         word-spacing="normal"
         letter-spacing="normal"
         font-size-adjust="none"
         font-stretch="normal"
         font-weight="normal"
         font-variant="normal"
         font-style="normal"
         stroke-miterlimit="10.433"
         xml:space="preserve"
         transform="matrix(0.10885714,0,0,-0.10885714,-19.05,76.2)"
         id="g1150"><path
           style="fill:#000000;stroke-width:0"
           inkscape:connector-curvature="0"
           id="path1146"
           d="m 487.6,440.07 h -30.14 v -2.34 h 5.39 v -29.19 h -5.39 v -2.34 c 1.9,0.16 6.93,0.16 9.12,0.16 2.44,0 7.88,0 10.06,-0.16 v 2.34 h -6.73 V 422 h 2.5 c 4.78,0 5.23,-2.14 5.23,-5.83 h 2.35 v 14 h -2.35 c 0,-3.69 -0.4,-5.83 -5.23,-5.83 h -2.5 v 13.39 h 6.98 c 8.02,0 9.18,-3.83 9.91,-9.66 h 2.34 z" /><path
           style="fill:#000000;stroke-width:0"
           inkscape:connector-curvature="0"
           id="path1148"
           d="m 494.13,419.95 -0.02,-0.09 -0.02,-0.09 -0.02,-0.08 -0.02,-0.08 -0.02,-0.07 -0.03,-0.07 -0.02,-0.07 -0.02,-0.06 -0.02,-0.06 -0.03,-0.06 -0.03,-0.05 -0.03,-0.05 -0.03,-0.05 -0.03,-0.04 -0.04,-0.04 -0.04,-0.03 -0.04,-0.04 -0.05,-0.03 -0.05,-0.03 -0.06,-0.02 -0.06,-0.03 -0.06,-0.02 -0.07,-0.02 -0.07,-0.01 -0.08,-0.02 h -0.05 l -0.04,-0.01 -0.05,-0.01 h -0.04 -0.05 l -0.05,-0.01 h -0.05 -0.06 l -0.05,-0.01 h -0.06 -0.06 -0.06 -0.06 -0.06 c -0.46,0 -0.94,0 -0.94,-0.74 0,-0.39 0.31,-0.53 0.48,-0.53 0.91,0 2.07,0.14 3,0.14 1.19,0 2.5,-0.14 3.66,-0.14 0.31,0 0.7,0.11 0.7,0.77 0,0.5 -0.5,0.5 -0.9,0.5 -0.79,0 -1.72,0 -1.72,0.41 0,0.18 0.25,1.09 0.39,1.6 0.42,1.85 0.9,3.74 1.28,5.19 0.42,-0.69 1.5,-2.04 3.59,-2.04 v 0.96 c -2.47,0 -3.09,2.69 -3.09,3.04 0,0.14 0.06,0.39 0.09,0.53 l 1.75,7 c 2.02,2.68 3.77,3.2 4.88,3.2 1.36,0 2.54,-1.02 2.54,-3.38 0,-1.43 -0.76,-4.98 -1.81,-7.01 -0.87,-1.7 -2.58,-3.38 -4.36,-3.38 v -0.96 c 4.25,0 8.96,4.7 8.96,9.89 0,4.07 -2.83,5.81 -5.22,5.81 -2.17,0 -4.02,-1.45 -4.96,-2.44 -0.59,1.99 -2.54,2.44 -3.59,2.44 -1.36,0 -2.19,-0.91 -2.75,-1.85 -0.7,-1.18 -1.25,-3.26 -1.25,-3.48 0,-0.45 0.48,-0.45 0.59,-0.45 0.49,0 0.52,0.11 0.77,1.04 0.52,2.04 1.19,3.77 2.55,3.77 0.9,0 1.14,-0.77 1.14,-1.7 0,-0.39 -0.07,-0.85 -0.11,-1.05 z" /></g>    </g>
    <path
       sodipodi:nodetypes="czc"
       inkscape:connector-curvature="0"
       id="path1269"
       d="m 13.607143,222.53867 c 0,0 18.780577,-6.26851 34.227787,-6.17616 15.44721,0.0924 30.074137,5.4011 30.074137,5.4011"
       style="fill:none;fill-rule:evenodd;stroke:#000000;stroke-width:0.35277778;stroke-linecap:butt;stroke-linejoin:miter;stroke-opacity:1;marker-start:url(#Arrow1Mstart);marker-end:url(#Arrow1Mend);stroke-miterlimit:4;stroke-dasharray:none" />
    <path
       inkscape:connector-curvature="0"
       id="path1603"
       d="M 23.920623,233.79074 H 31.1369"
       style="fill:none;fill-rule:evenodd;stroke:#000000;stroke-width:0.35277778;stroke-linecap:butt;stroke-linejoin:miter;stroke-miterlimit:4;stroke-dasharray:none;stroke-opacity:1;marker-end:url(#marker1607)" />
    <path
       sodipodi:nodetypes="cc"
       style="fill:none;fill-rule:evenodd;stroke:#000000;stroke-width:0.35277778;stroke-linecap:butt;stroke-linejoin:miter;stroke-miterlimit:4;stroke-dasharray:none;stroke-opacity:1;marker-end:url(#marker1631)"
       d="m 56.661141,233.79074 16.303441,0"
       id="path1627"
       inkscape:connector-curvature="0" />
    <path
       inkscape:connector-curvature="0"
       id="path1755"
       d="m 43.297664,263.59129 v -7.21628"
       style="fill:none;fill-rule:evenodd;stroke:#000000;stroke-width:0.35277778;stroke-linecap:butt;stroke-linejoin:miter;stroke-miterlimit:4;stroke-dasharray:none;stroke-opacity:1;marker-end:url(#marker1759)" />
    <g
       transform="matrix(0.7125,0,0,0.7125,21.853364,241.30014)"
       id="g2016">
      <g
         style="font-style:normal;font-variant:normal;font-weight:normal;font-stretch:normal;letter-spacing:normal;word-spacing:normal;text-anchor:start;fill:none;fill-opacity:1;fill-rule:evenodd;stroke:#000000;stroke-linecap:butt;stroke-linejoin:miter;stroke-miterlimit:10.43299961;stroke-dasharray:none;stroke-dashoffset:0;stroke-opacity:1"
         word-spacing="normal"
         letter-spacing="normal"
         font-size-adjust="none"
         font-stretch="normal"
         font-weight="normal"
         font-variant="normal"
         font-style="normal"
         stroke-miterlimit="10.433"
         xml:space="preserve"
         transform="matrix(0.11792857,0,0,-0.11792857,-20.6375,76.2)"
         id="g2014"><path
           style="fill:#000000;stroke-width:0"
           inkscape:connector-curvature="0"
           id="path2010"
           d="m 485.02,407.09 0.75,0.31 0.71,0.34 0.68,0.35 0.65,0.38 0.61,0.4 0.59,0.41 0.55,0.44 0.52,0.45 0.49,0.47 0.46,0.48 0.44,0.49 0.4,0.51 0.38,0.52 0.36,0.52 0.33,0.54 0.3,0.55 0.28,0.55 0.26,0.55 0.23,0.56 0.21,0.57 0.2,0.56 0.17,0.57 0.15,0.57 0.13,0.56 0.11,0.57 0.1,0.56 0.08,0.55 0.06,0.55 0.05,0.54 0.04,0.54 0.02,0.52 v 0.52 c 0,10.77 -7.23,17.83 -18.29,17.83 l -0.05,-1.99 c 2.69,0 6.58,-1 8.97,-5.23 1.89,-3.34 2.04,-7.63 2.04,-10.56 0,-2.78 0,-10.22 -4.78,-13.5 -1.09,1.64 -2.89,4.28 -6.23,4.28 -2.53,0 -4.83,-1.69 -4.83,-4.08 h 1.8 c 0,1.34 1.43,2.28 3.08,2.28 1.4,0 3.09,-0.55 4.09,-3.69 v 0 c -1.25,-0.54 -2.74,-0.79 -4.09,-0.79 -2.74,0 -3.08,1.61 -3.08,2.2 h -1.8 c 0,-0.3 0.05,-0.84 0.16,-1.09 v 0 c -6.14,2.93 -6.28,10.5 -6.28,14.39 0,2 0,6.73 1.84,10.26 2.59,4.78 6.87,5.53 9.11,5.53 l 0.05,1.99 c -11.41,0 -18.33,-7.36 -18.33,-17.83 0,-10.17 6.78,-17.44 18.33,-17.44 1.1,0 2.75,0.05 4.73,0.46 1.41,-5.65 2.39,-9.58 7.03,-9.58 5.08,0 6.83,5.89 6.83,9.26 0,0.41 0,1.3 -0.91,1.3 -0.73,0 -0.84,-0.64 -0.89,-0.98 -0.29,-1.91 -3.39,-1.96 -4.23,-1.96 -1.14,0 -2.64,0 -4.58,2.94 z" /><path
           style="fill:#000000;stroke-width:0"
           inkscape:connector-curvature="0"
           id="path2012"
           d="m 516.59,409.87 -0.01,0.71 -0.02,0.68 -0.03,0.66 -0.04,0.64 -0.06,0.62 -0.07,0.6 -0.09,0.57 -0.11,0.56 -0.13,0.55 -0.15,0.53 -0.17,0.51 -0.19,0.5 -0.21,0.49 -0.24,0.48 -0.26,0.47 -0.14,0.23 -0.15,0.23 c -1.07,1.61 -3.23,3 -6.03,3 v -0.98 c 1.89,0 3.71,-1.14 4.33,-3.17 0.56,-1.88 0.59,-4.39 0.59,-7.43 0,-2.57 0,-5.15 -0.45,-7.34 -0.7,-3.17 -3.06,-3.94 -4.47,-3.94 v 0 c -1.59,0 -3.72,0.94 -4.42,3.8 -0.48,2.05 -0.48,4.91 -0.48,7.48 0,2.55 0,5.21 0.51,7.11 0.74,2.75 2.97,3.49 4.39,3.49 v 0.98 c -8.08,0 -8.08,-9.51 -8.08,-12.03 0,-2.5 0,-11.81 8.08,-11.81 8.1,0 8.1,9.31 8.1,11.81 z" /></g>    </g>
    <g
       transform="matrix(0.7125,0,0,0.7125,31.089808,227.03102)"
       id="g2142">
      <g
         style="font-style:normal;font-variant:normal;font-weight:normal;font-stretch:normal;letter-spacing:normal;word-spacing:normal;text-anchor:start;fill:none;fill-opacity:1;fill-rule:evenodd;stroke:#000000;stroke-linecap:butt;stroke-linejoin:miter;stroke-miterlimit:10.43299961;stroke-dasharray:none;stroke-dashoffset:0;stroke-opacity:1"
         id="g2140"
         transform="matrix(0.11792857,0,0,-0.11792857,-20.6375,76.2)"
         xml:space="preserve"
         stroke-miterlimit="10.433"
         font-style="normal"
         font-variant="normal"
         font-weight="normal"
         font-stretch="normal"
         font-size-adjust="none"
         letter-spacing="normal"
         word-spacing="normal"><path
           style="fill:#000000;stroke-width:0"
           inkscape:connector-curvature="0"
           d="m 491.49,428.71 v 0.1 l -0.01,0.09 v 0.09 l -0.01,0.09 -0.01,0.08 -0.01,0.08 -0.01,0.08 -0.01,0.07 -0.02,0.07 -0.01,0.07 -0.02,0.06 -0.02,0.06 -0.02,0.06 -0.02,0.05 -0.02,0.05 -0.03,0.05 -0.02,0.04 -0.03,0.04 -0.02,0.04 -0.03,0.04 -0.03,0.03 -0.03,0.03 -0.03,0.02 -0.03,0.03 -0.03,0.02 -0.03,0.02 -0.03,0.01 -0.03,0.01 -0.03,0.01 -0.03,0.01 h -0.04 -0.03 c -0.2,0 -0.66,-0.2 -0.7,-1.34 -0.21,-3.44 -3.69,-5.48 -6.92,-5.48 -2.89,0 -5.39,1.54 -7.99,3.29 -2.69,1.78 -5.37,3.58 -8.61,3.58 -4.64,0 -8.33,-3.53 -8.33,-8.12 0,-1.1 0.41,-1.49 0.71,-1.49 0.5,0 0.7,0.94 0.7,1.14 0.25,4.19 4.33,5.69 6.92,5.69 2.89,0 5.38,-1.55 7.97,-3.3 2.69,-1.79 5.38,-3.59 8.63,-3.59 4.62,0 8.31,3.55 8.31,8.12 z"
           id="path2122" /><path
           style="fill:#000000;stroke-width:0"
           inkscape:connector-curvature="0"
           d="m 491.49,417.06 v 0.07 0.06 l -0.01,0.06 v 0.07 0.06 l -0.01,0.05 v 0.06 l -0.01,0.05 v 0.05 l -0.01,0.06 -0.01,0.04 -0.01,0.05 -0.01,0.05 -0.01,0.04 -0.01,0.04 -0.01,0.04 -0.01,0.04 -0.01,0.04 -0.01,0.04 -0.01,0.03 -0.01,0.03 -0.02,0.04 -0.01,0.03 -0.01,0.03 -0.02,0.02 -0.01,0.03 -0.03,0.05 -0.03,0.05 -0.03,0.04 -0.03,0.03 -0.03,0.04 -0.03,0.02 -0.03,0.03 -0.03,0.02 -0.03,0.02 -0.03,0.01 -0.02,0.02 -0.03,0.01 -0.02,0.01 h -0.02 l -0.02,0.01 h -0.02 -0.02 -0.01 l -0.01,0.01 c -0.2,0 -0.66,-0.25 -0.7,-1.35 -0.21,-3.44 -3.69,-5.48 -6.92,-5.48 -2.89,0 -5.39,1.54 -7.99,3.29 -2.69,1.79 -5.37,3.58 -8.61,3.58 -4.64,0 -8.33,-3.53 -8.33,-8.12 0,-1.1 0.41,-1.49 0.71,-1.49 0.5,0 0.7,0.94 0.7,1.14 0.25,4.19 4.33,5.69 6.92,5.69 2.89,0 5.38,-1.55 7.97,-3.3 2.69,-1.79 5.38,-3.57 8.63,-3.57 4.73,0 8.31,3.68 8.31,8.06 z"
           id="path2124" /><path
           style="fill:#000000;stroke-width:0"
           inkscape:connector-curvature="0"
           d="m 524.68,394.25 v 0.02 0.03 0.01 0.02 0.01 l -0.01,0.02 v 0.01 l -0.01,0.02 -0.01,0.02 -0.01,0.02 -0.01,0.02 -0.02,0.03 -0.01,0.02 -0.02,0.03 -0.02,0.03 -0.03,0.03 -0.02,0.03 -0.03,0.04 -0.02,0.02 -0.01,0.02 -0.02,0.02 -0.02,0.02 -0.02,0.02 -0.02,0.03 -0.02,0.02 -0.02,0.02 -0.02,0.03 -0.03,0.02 -0.02,0.03 -0.03,0.03 -0.03,0.03 -0.02,0.03 -0.03,0.03 -0.03,0.03 -0.03,0.03 -0.03,0.03 -0.04,0.04 -0.03,0.03 -0.04,0.04 -0.03,0.03 -0.04,0.04 -0.04,0.04 c -6.22,6.28 -7.81,15.69 -7.81,23.31 0,8.67 1.89,17.35 8.01,23.56 0.64,0.61 0.64,0.71 0.64,0.86 0,0.35 -0.18,0.49 -0.48,0.49 -0.5,0 -4.98,-3.38 -7.92,-9.7 -2.55,-5.49 -3.14,-11.02 -3.14,-15.21 0,-3.89 0.54,-9.9 3.28,-15.54 2.98,-6.13 7.28,-9.36 7.78,-9.36 0.3,0 0.48,0.14 0.48,0.5 z"
           id="path2126" /><path
           style="fill:#000000;stroke-width:0"
           inkscape:connector-curvature="0"
           d="m 541.91,438.03 h 5.68 v 2.34 c -2.04,-0.14 -6.92,-0.14 -9.21,-0.14 -2.3,0 -7.18,0 -9.22,0.14 v -2.34 h 5.68 v -29.49 h -5.68 v -2.34 c 2.04,0.16 6.92,0.16 9.22,0.16 2.29,0 7.17,0 9.21,-0.16 v 2.34 h -5.68 z"
           id="path2128" /><path
           style="fill:#000000;stroke-width:0"
           inkscape:connector-curvature="0"
           d="m 580.65,417.65 h 13.9 c 0.69,0 1.65,0 1.65,1 0,1 -0.96,1 -1.65,1 h -13.9 v 13.96 c 0,0.68 0,1.64 -1,1.64 -0.99,0 -0.99,-0.96 -0.99,-1.64 v -13.96 h -13.95 c -0.7,0 -1.64,0 -1.64,-1 0,-1 0.94,-1 1.64,-1 h 13.95 v -13.94 c 0,-0.7 0,-1.65 0.99,-1.65 1,0 1,0.95 1,1.65 z"
           id="path2130" /><path
           style="fill:#000000;stroke-width:0"
           inkscape:connector-curvature="0"
           d="m 630.6,411.57 -0.11,-0.2 -0.13,-0.19 -0.13,-0.18 -0.15,-0.17 -0.16,-0.16 -0.17,-0.15 -0.18,-0.14 -0.18,-0.13 -0.2,-0.12 -0.21,-0.11 -0.22,-0.1 -0.23,-0.1 -0.24,-0.09 -0.25,-0.07 -0.26,-0.08 -0.27,-0.06 -0.27,-0.06 -0.29,-0.05 -0.29,-0.05 -0.31,-0.04 -0.31,-0.04 -0.32,-0.03 -0.33,-0.02 -0.34,-0.03 -0.34,-0.01 -0.36,-0.02 -0.36,-0.01 -0.37,-0.01 -0.37,-0.01 h -0.39 -0.39 -0.4 c -3.12,0 -7.81,0 -7.81,3.34 0,1 0.69,2.89 2.48,4.19 2.05,-1.11 4.74,-1.11 5.64,-1.11 l 0.05,1.8 c -0.84,0 -2.14,0 -3.55,0.54 v 0 c 1.8,0.66 3.69,0.66 4.19,0.66 1.34,0 1.5,-0.05 2.09,-0.25 -0.2,-0.6 -0.34,-0.95 -2.73,-0.95 l -0.05,-1.8 c 1.35,0 5.13,0 5.13,2.75 0,2.05 -2.69,2.05 -4.24,2.05 -1,0 -3.68,0 -6.32,-1.25 -0.4,0.5 -0.6,1.18 -0.6,1.73 0,2.75 3.44,4.55 9.36,4.55 1.34,0 2.94,0 5.08,-1.5 0.41,-0.25 0.75,-0.41 1.11,-0.41 1.05,0 2.23,1.11 2.23,2.25 0,0.89 -0.79,1.55 -2.64,2.44 -2.19,1 -4.08,1 -4.83,1 -8.57,0 -12.65,-4.78 -12.65,-8.33 0,-1.48 0.75,-2.53 1.04,-2.88 -2.04,-1.7 -3.23,-3.75 -3.23,-6.14 0,-3.43 2.73,-6.46 9.41,-6.46 8.12,0 10.72,4.73 10.72,5.53 0,0.43 -0.36,0.84 -0.85,0.84 -0.25,0 -0.45,-0.16 -0.5,-0.16 z"
           id="path2132" /><path
           style="fill:#000000;stroke-width:0"
           inkscape:connector-curvature="0"
           d="m 650.86,418.65 v 0.37 l -0.01,0.39 -0.01,0.39 -0.01,0.41 -0.04,0.84 -0.06,0.88 -0.08,0.92 -0.11,0.95 -0.13,0.97 -0.17,1.01 -0.19,1.02 -0.23,1.03 -0.27,1.05 -0.31,1.06 -0.34,1.07 -0.4,1.07 -0.21,0.53 -0.22,0.53 -0.24,0.53 -0.25,0.53 c -2.99,6.12 -7.27,9.36 -7.77,9.36 -0.29,0 -0.5,-0.19 -0.5,-0.49 0,-0.15 0,-0.25 0.94,-1.15 4.89,-4.92 7.73,-12.85 7.73,-23.27 0,-8.51 -1.84,-17.28 -8.03,-23.56 -0.64,-0.59 -0.64,-0.7 -0.64,-0.84 0,-0.3 0.21,-0.5 0.5,-0.5 0.5,0 4.97,3.39 7.92,9.71 2.54,5.47 3.13,11 3.13,15.19 z"
           id="path2134" /><path
           style="fill:#000000;stroke-width:0"
           inkscape:connector-curvature="0"
           d="m 691.47,423.14 0.54,0.14 0.51,0.16 0.49,0.16 0.48,0.18 0.46,0.18 0.44,0.19 0.42,0.2 0.4,0.21 0.39,0.22 0.36,0.22 0.35,0.23 0.33,0.24 0.32,0.24 0.29,0.25 0.28,0.26 0.27,0.26 0.24,0.26 0.23,0.27 0.21,0.28 0.2,0.28 0.18,0.28 0.16,0.29 0.15,0.29 0.13,0.3 0.11,0.29 0.1,0.3 0.09,0.3 0.06,0.31 0.06,0.3 0.04,0.31 0.02,0.3 v 0.31 c 0,5.05 -5.48,9.22 -14.84,9.22 H 666 v -2.34 h 5.4 V 408.54 H 666 v -2.34 c 1.8,0.16 6.69,0.16 8.78,0.16 2.08,0 6.97,0 8.77,-0.16 v 2.34 h -5.39 v 13.85 1.79 13.85 h 5.89 c 8.02,0 8.11,-3.88 8.11,-6.92 0,-2.79 0,-6.93 -8.22,-6.93 h -5.78 v -1.79 h 5.83 c 0.7,0 2.89,0 4.44,-1.69 1.59,-1.75 1.59,-2.69 1.59,-6.33 0,-3.3 0,-5.73 3.48,-7.42 2.21,-1.09 5.28,-1.3 7.33,-1.3 5.33,0 5.99,4.49 5.99,5.28 0,1.1 -0.71,1.1 -1.21,1.1 -1.04,0 -1.09,-0.5 -1.14,-1.14 -0.25,-2.35 -1.69,-3.44 -3.19,-3.44 -2.98,0 -3.43,3.53 -3.68,5.62 -0.1,0.55 -0.5,3.99 -0.55,4.24 -0.7,3.48 -3.44,5.03 -5.58,5.83 z"
           id="path2136" /><path
           style="fill:#000000;stroke-width:0"
           inkscape:connector-curvature="0"
           d="m 714.85,432.14 h 0.1 0.1 0.12 0.12 0.14 l 0.14,0.01 h 0.15 l 0.15,0.01 0.16,0.01 0.17,0.01 h 0.17 l 0.18,0.02 0.19,0.01 0.18,0.01 0.39,0.04 0.4,0.04 0.4,0.05 0.41,0.06 0.4,0.07 0.4,0.08 0.2,0.04 0.2,0.05 0.19,0.05 0.19,0.05 0.18,0.06 0.18,0.06 c 2.58,0.91 3.06,2.58 3.06,3.63 0,1.92 -1.92,3.06 -4.32,3.06 v -0.97 c 1.53,0 2.82,-0.77 2.82,-2.09 0,-3.38 -5.89,-3.38 -7.39,-3.38 h -1.7 c 1.42,5.05 5.3,5.47 6.27,5.47 v 0.97 c -4.18,0 -9.83,-3.2 -9.83,-9.16 0,-3.51 2.2,-6.54 6.28,-6.54 5.89,0 8.64,3.43 8.64,3.93 0,0.21 -0.31,0.6 -0.59,0.6 -0.21,0 -0.29,-0.08 -0.57,-0.36 -2.72,-3.21 -6.79,-3.21 -7.42,-3.21 -2.09,0 -3.48,1.39 -3.48,4.22 0,0.49 0,1.19 0.42,3.1 z"
           id="path2138" /></g>    </g>
    <g
       transform="matrix(0.7,0,0,0.7,46.957163,241.71544)"
       id="g2502">
      <g
         style="font-style:normal;font-variant:normal;font-weight:normal;font-stretch:normal;letter-spacing:normal;word-spacing:normal;text-anchor:start;fill:none;fill-opacity:1;fill-rule:evenodd;stroke:#000000;stroke-linecap:butt;stroke-linejoin:miter;stroke-miterlimit:10.43299961;stroke-dasharray:none;stroke-dashoffset:0;stroke-opacity:1"
         word-spacing="normal"
         letter-spacing="normal"
         font-size-adjust="none"
         font-stretch="normal"
         font-weight="normal"
         font-variant="normal"
         font-style="normal"
         stroke-miterlimit="10.433"
         xml:space="preserve"
         transform="matrix(0.11792857,0,0,-0.11792857,-20.6375,76.2)"
         id="g2500"><path
           style="fill:#000000;stroke-width:0"
           inkscape:connector-curvature="0"
           id="path2486"
           d="m 487.6,440.07 h -30.14 v -2.34 h 5.39 v -29.19 h -5.39 v -2.34 c 1.9,0.16 6.93,0.16 9.12,0.16 2.44,0 7.88,0 10.06,-0.16 v 2.34 h -6.73 V 422 h 2.5 c 4.78,0 5.23,-2.14 5.23,-5.83 h 2.35 v 14 h -2.35 c 0,-3.69 -0.4,-5.83 -5.23,-5.83 h -2.5 v 13.39 h 6.98 c 8.02,0 9.18,-3.83 9.91,-9.66 h 2.34 z" /><path
           style="fill:#000000;stroke-width:0"
           inkscape:connector-curvature="0"
           id="path2488"
           d="m 539.68,422.5 h 0.14 0.14 0.14 l 0.08,0.01 h 0.07 l 0.07,0.01 0.07,0.01 0.07,0.01 0.07,0.01 0.07,0.01 0.07,0.02 0.06,0.02 0.06,0.02 0.07,0.02 0.05,0.03 0.06,0.03 0.05,0.04 0.05,0.03 0.05,0.05 0.04,0.04 0.04,0.05 0.02,0.03 0.02,0.03 0.01,0.02 0.02,0.03 0.01,0.03 0.02,0.04 0.01,0.03 0.01,0.04 0.01,0.03 0.01,0.04 0.01,0.04 v 0.04 l 0.01,0.04 v 0.04 0.04 0.05 c 0,1 -0.95,1 -1.64,1 h -29.84 c -0.7,0 -1.64,0 -1.64,-1 0,-0.98 0.94,-0.98 1.69,-0.98 z" /><path
           style="fill:#000000;stroke-width:0"
           inkscape:connector-curvature="0"
           id="path2490"
           d="m 539.72,412.82 h 0.07 0.06 l 0.14,0.01 h 0.14 0.07 l 0.07,0.01 0.07,0.01 h 0.07 l 0.07,0.01 0.06,0.02 0.07,0.01 0.07,0.02 0.06,0.02 0.06,0.02 0.06,0.02 0.06,0.03 0.05,0.03 0.06,0.04 0.04,0.04 0.05,0.04 0.04,0.05 0.02,0.02 0.02,0.03 0.02,0.02 0.02,0.03 0.02,0.03 0.01,0.03 0.01,0.03 0.02,0.03 0.01,0.04 0.01,0.03 0.01,0.04 0.01,0.04 0.01,0.04 v 0.04 l 0.01,0.04 v 0.04 0.05 0.04 c 0,1 -0.95,1 -1.68,1 h -29.75 c -0.75,0 -1.69,0 -1.69,-1 0,-1 0.94,-1 1.64,-1 z" /><path
           style="fill:#000000;stroke-width:0"
           inkscape:connector-curvature="0"
           id="path2492"
           d="m 590.07,440.07 h -30.14 v -2.34 h 5.39 v -29.19 h -5.39 v -2.34 c 1.91,0.16 6.94,0.16 9.13,0.16 2.44,0 7.87,0 10.06,-0.16 v 2.34 h -6.73 V 422 h 2.5 c 4.78,0 5.23,-2.14 5.23,-5.83 h 2.35 v 14 h -2.35 c 0,-3.69 -0.4,-5.83 -5.23,-5.83 h -2.5 v 13.39 h 6.98 c 8.02,0 9.17,-3.83 9.91,-9.66 h 2.34 z" /><path
           style="fill:#000000;stroke-width:0"
           inkscape:connector-curvature="0"
           id="path2494"
           d="m 601.81,432.14 h 0.1 0.1 0.12 0.12 0.14 l 0.14,0.01 h 0.15 l 0.15,0.01 0.16,0.01 0.17,0.01 h 0.18 l 0.17,0.02 0.19,0.01 0.19,0.01 0.38,0.04 0.4,0.04 0.4,0.05 0.41,0.06 0.4,0.07 0.41,0.08 0.19,0.04 0.2,0.05 0.19,0.05 0.19,0.05 0.18,0.06 0.18,0.06 c 2.58,0.91 3.06,2.58 3.06,3.63 0,1.92 -1.92,3.06 -4.32,3.06 v -0.97 c 1.53,0 2.82,-0.77 2.82,-2.09 0,-3.38 -5.89,-3.38 -7.39,-3.38 h -1.7 c 1.42,5.05 5.3,5.47 6.27,5.47 v 0.97 c -4.18,0 -9.83,-3.2 -9.83,-9.16 0,-3.51 2.2,-6.54 6.28,-6.54 5.89,0 8.64,3.43 8.64,3.93 0,0.21 -0.31,0.6 -0.59,0.6 -0.21,0 -0.28,-0.08 -0.57,-0.36 -2.71,-3.21 -6.79,-3.21 -7.42,-3.21 -2.09,0 -3.48,1.39 -3.48,4.22 0,0.49 0,1.19 0.42,3.1 z" /><path
           style="fill:#000000;stroke-width:0"
           inkscape:connector-curvature="0"
           id="path2496"
           d="m 647.56,440.07 h -30.14 v -2.34 h 5.39 v -29.19 h -5.39 v -2.34 c 1.9,0.16 6.93,0.16 9.12,0.16 2.44,0 7.88,0 10.06,-0.16 v 2.34 h -6.73 V 422 h 2.5 c 4.78,0 5.23,-2.14 5.23,-5.83 h 2.35 v 14 h -2.35 c 0,-3.69 -0.4,-5.83 -5.23,-5.83 h -2.5 v 13.39 h 6.98 c 8.02,0 9.18,-3.83 9.91,-9.66 h 2.34 z" /><path
           style="fill:#000000;stroke-width:0"
           inkscape:connector-curvature="0"
           id="path2498"
           d="m 654.09,419.95 -0.02,-0.09 -0.02,-0.09 -0.02,-0.08 -0.02,-0.08 -0.02,-0.07 -0.03,-0.07 -0.02,-0.07 -0.02,-0.06 -0.02,-0.06 -0.03,-0.06 -0.03,-0.05 -0.03,-0.05 -0.03,-0.05 -0.03,-0.04 -0.04,-0.04 -0.04,-0.03 -0.04,-0.04 -0.05,-0.03 -0.05,-0.03 -0.06,-0.02 -0.05,-0.03 -0.07,-0.02 -0.07,-0.02 -0.07,-0.01 -0.08,-0.02 h -0.05 l -0.04,-0.01 -0.05,-0.01 h -0.04 -0.05 l -0.05,-0.01 h -0.05 -0.06 l -0.05,-0.01 h -0.06 -0.06 -0.06 -0.06 -0.06 c -0.46,0 -0.94,0 -0.94,-0.74 0,-0.39 0.31,-0.53 0.48,-0.53 0.91,0 2.07,0.14 3,0.14 1.19,0 2.5,-0.14 3.66,-0.14 0.31,0 0.7,0.11 0.7,0.77 0,0.5 -0.5,0.5 -0.9,0.5 -0.79,0 -1.72,0 -1.72,0.41 0,0.18 0.25,1.09 0.39,1.6 0.42,1.85 0.91,3.74 1.28,5.19 0.42,-0.69 1.5,-2.04 3.59,-2.04 v 0.96 c -2.46,0 -3.09,2.69 -3.09,3.04 0,0.14 0.06,0.39 0.09,0.53 l 1.75,7 c 2.02,2.68 3.77,3.2 4.88,3.2 1.36,0 2.54,-1.02 2.54,-3.38 0,-1.43 -0.76,-4.98 -1.81,-7.01 -0.87,-1.7 -2.57,-3.38 -4.36,-3.38 v -0.96 c 4.25,0 8.96,4.7 8.96,9.89 0,4.07 -2.83,5.81 -5.22,5.81 -2.17,0 -4.02,-1.45 -4.95,-2.44 -0.6,1.99 -2.55,2.44 -3.6,2.44 -1.36,0 -2.19,-0.91 -2.75,-1.85 -0.7,-1.18 -1.25,-3.26 -1.25,-3.48 0,-0.45 0.48,-0.45 0.6,-0.45 0.48,0 0.51,0.11 0.76,1.04 0.52,2.04 1.19,3.77 2.55,3.77 0.9,0 1.14,-0.77 1.14,-1.7 0,-0.39 -0.07,-0.85 -0.11,-1.05 z" /></g>    </g>
    <g
       id="g2860"
       transform="matrix(0.7,0,0,0.7,41.10767,246.71707)">
      <g
         word-spacing="normal"
         letter-spacing="normal"
         font-size-adjust="none"
         font-stretch="normal"
         font-weight="normal"
         font-variant="normal"
         font-style="normal"
         stroke-miterlimit="10.433"
         xml:space="preserve"
         transform="matrix(0.11792857,0,0,-0.11792857,-20.6375,76.2)"
         id="g2858"
         style="font-style:normal;font-variant:normal;font-weight:normal;font-stretch:normal;letter-spacing:normal;word-spacing:normal;text-anchor:start;fill:none;fill-opacity:1;fill-rule:evenodd;stroke:#000000;stroke-linecap:butt;stroke-linejoin:miter;stroke-miterlimit:10.43299961;stroke-dasharray:none;stroke-dashoffset:0;stroke-opacity:1"><path
           id="path2836"
           d="m 489.75,422.5 h 0.14 0.15 0.14 l 0.07,0.01 h 0.08 l 0.07,0.01 0.07,0.01 0.07,0.01 0.07,0.01 0.07,0.01 0.06,0.02 0.07,0.02 0.06,0.02 0.06,0.02 0.06,0.03 0.06,0.03 0.05,0.04 0.05,0.03 0.05,0.05 0.04,0.04 0.04,0.05 0.02,0.03 0.02,0.03 0.01,0.02 0.02,0.03 0.01,0.03 0.02,0.04 0.01,0.03 0.01,0.04 0.01,0.03 0.01,0.04 v 0.04 l 0.01,0.04 v 0.04 l 0.01,0.04 v 0.04 0.05 c 0,1 -0.95,1 -1.64,1 h -29.84 c -0.71,0 -1.64,0 -1.64,-1 0,-0.98 0.93,-0.98 1.68,-0.98 z"
           inkscape:connector-curvature="0"
           style="fill:#000000;stroke-width:0" /><path
           id="path2838"
           d="m 489.8,412.82 h 0.07 0.06 l 0.14,0.01 h 0.14 0.07 l 0.07,0.01 0.07,0.01 h 0.07 l 0.06,0.01 0.07,0.02 0.07,0.01 0.06,0.02 0.07,0.02 0.06,0.02 0.06,0.02 0.06,0.03 0.05,0.03 0.05,0.04 0.05,0.04 0.05,0.04 0.04,0.05 0.02,0.02 0.02,0.03 0.02,0.02 0.02,0.03 0.01,0.03 0.02,0.03 0.01,0.03 0.02,0.03 0.01,0.04 0.01,0.03 0.01,0.04 0.01,0.04 v 0.04 l 0.01,0.04 v 0.04 l 0.01,0.04 v 0.05 0.04 c 0,1 -0.95,1 -1.69,1 H 460 c -0.75,0 -1.68,0 -1.68,-1 0,-1 0.93,-1 1.64,-1 z"
           inkscape:connector-curvature="0"
           style="fill:#000000;stroke-width:0" /><path
           id="path2840"
           d="m 524.68,394.25 v 0.02 0.03 0.01 0.02 0.01 l -0.01,0.02 v 0.01 l -0.01,0.02 -0.01,0.02 -0.01,0.02 -0.01,0.02 -0.02,0.03 -0.01,0.02 -0.02,0.03 -0.02,0.03 -0.03,0.03 -0.02,0.03 -0.03,0.04 -0.02,0.02 -0.01,0.02 -0.02,0.02 -0.02,0.02 -0.02,0.02 -0.02,0.03 -0.02,0.02 -0.02,0.02 -0.02,0.03 -0.03,0.02 -0.02,0.03 -0.03,0.03 -0.03,0.03 -0.02,0.03 -0.03,0.03 -0.03,0.03 -0.03,0.03 -0.03,0.03 -0.04,0.04 -0.03,0.03 -0.04,0.04 -0.03,0.03 -0.04,0.04 -0.04,0.04 c -6.22,6.28 -7.81,15.69 -7.81,23.31 0,8.67 1.89,17.35 8.01,23.56 0.64,0.61 0.64,0.71 0.64,0.86 0,0.35 -0.18,0.49 -0.48,0.49 -0.5,0 -4.98,-3.38 -7.92,-9.7 -2.55,-5.49 -3.14,-11.02 -3.14,-15.21 0,-3.89 0.54,-9.9 3.28,-15.54 2.98,-6.13 7.28,-9.36 7.78,-9.36 0.3,0 0.48,0.14 0.48,0.5 z"
           inkscape:connector-curvature="0"
           style="fill:#000000;stroke-width:0" /><path
           id="path2842"
           d="m 541.91,438.03 h 5.68 v 2.34 c -2.04,-0.14 -6.92,-0.14 -9.21,-0.14 -2.3,0 -7.18,0 -9.22,0.14 v -2.34 h 5.68 v -29.49 h -5.68 v -2.34 c 2.04,0.16 6.92,0.16 9.22,0.16 2.29,0 7.17,0 9.21,-0.16 v 2.34 h -5.68 z"
           inkscape:connector-curvature="0"
           style="fill:#000000;stroke-width:0" /><path
           id="path2844"
           d="m 580.65,417.65 h 13.9 c 0.69,0 1.65,0 1.65,1 0,1 -0.96,1 -1.65,1 h -13.9 v 13.96 c 0,0.68 0,1.64 -1,1.64 -0.99,0 -0.99,-0.96 -0.99,-1.64 v -13.96 h -13.95 c -0.7,0 -1.64,0 -1.64,-1 0,-1 0.94,-1 1.64,-1 h 13.95 v -13.94 c 0,-0.7 0,-1.65 0.99,-1.65 1,0 1,0.95 1,1.65 z"
           inkscape:connector-curvature="0"
           style="fill:#000000;stroke-width:0" /><path
           id="path2846"
           d="m 630.6,411.57 -0.11,-0.2 -0.13,-0.19 -0.13,-0.18 -0.15,-0.17 -0.16,-0.16 -0.17,-0.15 -0.18,-0.14 -0.18,-0.13 -0.2,-0.12 -0.21,-0.11 -0.22,-0.1 -0.23,-0.1 -0.24,-0.09 -0.25,-0.07 -0.26,-0.08 -0.27,-0.06 -0.27,-0.06 -0.29,-0.05 -0.29,-0.05 -0.31,-0.04 -0.31,-0.04 -0.32,-0.03 -0.33,-0.02 -0.34,-0.03 -0.34,-0.01 -0.36,-0.02 -0.36,-0.01 -0.37,-0.01 -0.37,-0.01 h -0.39 -0.39 -0.4 c -3.12,0 -7.81,0 -7.81,3.34 0,1 0.69,2.89 2.48,4.19 2.05,-1.11 4.74,-1.11 5.64,-1.11 l 0.05,1.8 c -0.84,0 -2.14,0 -3.55,0.54 v 0 c 1.8,0.66 3.69,0.66 4.19,0.66 1.34,0 1.5,-0.05 2.09,-0.25 -0.2,-0.6 -0.34,-0.95 -2.73,-0.95 l -0.05,-1.8 c 1.35,0 5.13,0 5.13,2.75 0,2.05 -2.69,2.05 -4.24,2.05 -1,0 -3.68,0 -6.32,-1.25 -0.4,0.5 -0.6,1.18 -0.6,1.73 0,2.75 3.44,4.55 9.36,4.55 1.34,0 2.94,0 5.08,-1.5 0.41,-0.25 0.75,-0.41 1.11,-0.41 1.05,0 2.23,1.11 2.23,2.25 0,0.89 -0.79,1.55 -2.64,2.44 -2.19,1 -4.08,1 -4.83,1 -8.57,0 -12.65,-4.78 -12.65,-8.33 0,-1.48 0.75,-2.53 1.04,-2.88 -2.04,-1.7 -3.23,-3.75 -3.23,-6.14 0,-3.43 2.73,-6.46 9.41,-6.46 8.12,0 10.72,4.73 10.72,5.53 0,0.43 -0.36,0.84 -0.85,0.84 -0.25,0 -0.45,-0.16 -0.5,-0.16 z"
           inkscape:connector-curvature="0"
           style="fill:#000000;stroke-width:0" /><path
           id="path2848"
           d="m 650.86,418.65 v 0.37 l -0.01,0.39 -0.01,0.39 -0.01,0.41 -0.04,0.84 -0.06,0.88 -0.08,0.92 -0.11,0.95 -0.13,0.97 -0.17,1.01 -0.19,1.02 -0.23,1.03 -0.27,1.05 -0.31,1.06 -0.34,1.07 -0.4,1.07 -0.21,0.53 -0.22,0.53 -0.24,0.53 -0.25,0.53 c -2.99,6.12 -7.27,9.36 -7.77,9.36 -0.29,0 -0.5,-0.19 -0.5,-0.49 0,-0.15 0,-0.25 0.94,-1.15 4.89,-4.92 7.73,-12.85 7.73,-23.27 0,-8.51 -1.84,-17.28 -8.03,-23.56 -0.64,-0.59 -0.64,-0.7 -0.64,-0.84 0,-0.3 0.21,-0.5 0.5,-0.5 0.5,0 4.97,3.39 7.92,9.71 2.54,5.47 3.13,11 3.13,15.19 z"
           inkscape:connector-curvature="0"
           style="fill:#000000;stroke-width:0" /><path
           id="path2850"
           d="m 691.47,423.14 0.54,0.14 0.51,0.16 0.49,0.16 0.48,0.18 0.46,0.18 0.44,0.19 0.42,0.2 0.4,0.21 0.39,0.22 0.36,0.22 0.35,0.23 0.33,0.24 0.32,0.24 0.29,0.25 0.28,0.26 0.27,0.26 0.24,0.26 0.23,0.27 0.21,0.28 0.2,0.28 0.18,0.28 0.16,0.29 0.15,0.29 0.13,0.3 0.11,0.29 0.1,0.3 0.09,0.3 0.06,0.31 0.06,0.3 0.04,0.31 0.02,0.3 v 0.31 c 0,5.05 -5.48,9.22 -14.84,9.22 H 666 v -2.34 h 5.4 V 408.54 H 666 v -2.34 c 1.8,0.16 6.69,0.16 8.78,0.16 2.08,0 6.97,0 8.77,-0.16 v 2.34 h -5.39 v 13.85 1.79 13.85 h 5.89 c 8.02,0 8.11,-3.88 8.11,-6.92 0,-2.79 0,-6.93 -8.22,-6.93 h -5.78 v -1.79 h 5.83 c 0.7,0 2.89,0 4.44,-1.69 1.59,-1.75 1.59,-2.69 1.59,-6.33 0,-3.3 0,-5.73 3.48,-7.42 2.21,-1.09 5.28,-1.3 7.33,-1.3 5.33,0 5.99,4.49 5.99,5.28 0,1.1 -0.71,1.1 -1.21,1.1 -1.04,0 -1.09,-0.5 -1.14,-1.14 -0.25,-2.35 -1.69,-3.44 -3.19,-3.44 -2.98,0 -3.43,3.53 -3.68,5.62 -0.1,0.55 -0.5,3.99 -0.55,4.24 -0.7,3.48 -3.44,5.03 -5.58,5.83 z"
           inkscape:connector-curvature="0"
           style="fill:#000000;stroke-width:0" /><path
           id="path2852"
           d="m 714.85,432.14 h 0.1 0.1 0.12 0.12 0.14 l 0.14,0.01 h 0.15 l 0.15,0.01 0.16,0.01 0.17,0.01 h 0.17 l 0.18,0.02 0.19,0.01 0.18,0.01 0.39,0.04 0.4,0.04 0.4,0.05 0.41,0.06 0.4,0.07 0.4,0.08 0.2,0.04 0.2,0.05 0.19,0.05 0.19,0.05 0.18,0.06 0.18,0.06 c 2.58,0.91 3.06,2.58 3.06,3.63 0,1.92 -1.92,3.06 -4.32,3.06 v -0.97 c 1.53,0 2.82,-0.77 2.82,-2.09 0,-3.38 -5.89,-3.38 -7.39,-3.38 h -1.7 c 1.42,5.05 5.3,5.47 6.27,5.47 v 0.97 c -4.18,0 -9.83,-3.2 -9.83,-9.16 0,-3.51 2.2,-6.54 6.28,-6.54 5.89,0 8.64,3.43 8.64,3.93 0,0.21 -0.31,0.6 -0.59,0.6 -0.21,0 -0.29,-0.08 -0.57,-0.36 -2.72,-3.21 -6.79,-3.21 -7.42,-3.21 -2.09,0 -3.48,1.39 -3.48,4.22 0,0.49 0,1.19 0.42,3.1 z"
           inkscape:connector-curvature="0"
           style="fill:#000000;stroke-width:0" /><path
           id="path2854"
           d="m 760.6,440.07 h -30.14 v -2.34 h 5.39 v -29.19 h -5.39 v -2.34 c 1.9,0.16 6.94,0.16 9.12,0.16 2.44,0 7.88,0 10.07,-0.16 v 2.34 h -6.74 V 422 h 2.5 c 4.78,0 5.24,-2.14 5.24,-5.83 h 2.34 v 14 h -2.34 c 0,-3.69 -0.41,-5.83 -5.24,-5.83 h -2.5 v 13.39 h 6.99 c 8.01,0 9.17,-3.83 9.9,-9.66 h 2.35 z"
           inkscape:connector-curvature="0"
           style="fill:#000000;stroke-width:0" /><path
           id="path2856"
           d="m 767.13,419.95 -0.02,-0.09 -0.02,-0.09 -0.02,-0.08 -0.02,-0.08 -0.02,-0.07 -0.03,-0.07 -0.02,-0.07 -0.02,-0.06 -0.02,-0.06 -0.03,-0.06 -0.03,-0.05 -0.03,-0.05 -0.03,-0.05 -0.03,-0.04 -0.04,-0.04 -0.04,-0.03 -0.04,-0.04 -0.05,-0.03 -0.05,-0.03 -0.06,-0.02 -0.06,-0.03 -0.06,-0.02 -0.07,-0.02 -0.07,-0.01 -0.08,-0.02 h -0.05 l -0.04,-0.01 -0.05,-0.01 h -0.04 -0.05 l -0.05,-0.01 h -0.05 -0.06 l -0.05,-0.01 h -0.06 -0.06 -0.06 -0.06 -0.06 c -0.46,0 -0.94,0 -0.94,-0.74 0,-0.39 0.31,-0.53 0.48,-0.53 0.91,0 2.06,0.14 3,0.14 1.19,0 2.5,-0.14 3.66,-0.14 0.31,0 0.7,0.11 0.7,0.77 0,0.5 -0.5,0.5 -0.9,0.5 -0.78,0 -1.72,0 -1.72,0.41 0,0.18 0.25,1.09 0.39,1.6 0.42,1.85 0.9,3.74 1.28,5.19 0.42,-0.69 1.5,-2.04 3.59,-2.04 v 0.96 c -2.47,0 -3.09,2.69 -3.09,3.04 0,0.14 0.06,0.39 0.09,0.53 l 1.75,7 c 2.02,2.68 3.77,3.2 4.88,3.2 1.36,0 2.55,-1.02 2.55,-3.38 0,-1.43 -0.77,-4.98 -1.82,-7.01 -0.87,-1.7 -2.58,-3.38 -4.36,-3.38 v -0.96 c 4.25,0 8.96,4.7 8.96,9.89 0,4.07 -2.83,5.81 -5.22,5.81 -2.18,0 -4.02,-1.45 -4.96,-2.44 -0.59,1.99 -2.54,2.44 -3.59,2.44 -1.36,0 -2.19,-0.91 -2.75,-1.85 -0.7,-1.18 -1.25,-3.26 -1.25,-3.48 0,-0.45 0.49,-0.45 0.59,-0.45 0.49,0 0.52,0.11 0.77,1.04 0.51,2.04 1.19,3.77 2.55,3.77 0.9,0 1.14,-0.77 1.14,-1.7 0,-0.39 -0.06,-0.85 -0.11,-1.05 z"
           inkscape:connector-curvature="0"
           style="fill:#000000;stroke-width:0" /></g>    </g>
    <g
       transform="matrix(0.7,0,0,0.7,46.703111,255.3249)"
       id="g3077">
      <g
         style="font-style:normal;font-variant:normal;font-weight:normal;font-stretch:normal;letter-spacing:normal;word-spacing:normal;text-anchor:start;fill:none;fill-opacity:1;fill-rule:evenodd;stroke:#000000;stroke-linecap:butt;stroke-linejoin:miter;stroke-miterlimit:10.43299961;stroke-dasharray:none;stroke-dashoffset:0;stroke-opacity:1"
         id="g3075"
         transform="matrix(0.11792857,0,0,-0.11792857,-20.6375,76.2)"
         xml:space="preserve"
         stroke-miterlimit="10.433"
         font-style="normal"
         font-variant="normal"
         font-weight="normal"
         font-stretch="normal"
         font-size-adjust="none"
         letter-spacing="normal"
         word-spacing="normal"><path
           style="fill:#000000;stroke-width:0"
           inkscape:connector-curvature="0"
           d="m 485.02,407.09 0.75,0.31 0.71,0.34 0.68,0.35 0.65,0.38 0.61,0.4 0.59,0.41 0.55,0.44 0.52,0.45 0.49,0.47 0.46,0.48 0.44,0.49 0.4,0.51 0.38,0.52 0.36,0.52 0.33,0.54 0.3,0.55 0.28,0.55 0.26,0.55 0.23,0.56 0.21,0.57 0.2,0.56 0.17,0.57 0.15,0.57 0.13,0.56 0.11,0.57 0.1,0.56 0.08,0.55 0.06,0.55 0.05,0.54 0.04,0.54 0.02,0.52 v 0.52 c 0,10.77 -7.23,17.83 -18.29,17.83 l -0.05,-1.99 c 2.69,0 6.58,-1 8.97,-5.23 1.89,-3.34 2.04,-7.63 2.04,-10.56 0,-2.78 0,-10.22 -4.78,-13.5 -1.09,1.64 -2.89,4.28 -6.23,4.28 -2.53,0 -4.83,-1.69 -4.83,-4.08 h 1.8 c 0,1.34 1.43,2.28 3.08,2.28 1.4,0 3.09,-0.55 4.09,-3.69 v 0 c -1.25,-0.54 -2.74,-0.79 -4.09,-0.79 -2.74,0 -3.08,1.61 -3.08,2.2 h -1.8 c 0,-0.3 0.05,-0.84 0.16,-1.09 v 0 c -6.14,2.93 -6.28,10.5 -6.28,14.39 0,2 0,6.73 1.84,10.26 2.59,4.78 6.87,5.53 9.11,5.53 l 0.05,1.99 c -11.41,0 -18.33,-7.36 -18.33,-17.83 0,-10.17 6.78,-17.44 18.33,-17.44 1.1,0 2.75,0.05 4.73,0.46 1.41,-5.65 2.39,-9.58 7.03,-9.58 5.08,0 6.83,5.89 6.83,9.26 0,0.41 0,1.3 -0.91,1.3 -0.73,0 -0.84,-0.64 -0.89,-0.98 -0.29,-1.91 -3.39,-1.96 -4.23,-1.96 -1.14,0 -2.64,0 -4.58,2.94 z"
           id="path3061" /><path
           style="fill:#000000;stroke-width:0"
           inkscape:connector-curvature="0"
           d="m 546.63,422.5 h 0.14 0.15 0.14 l 0.07,0.01 h 0.08 l 0.07,0.01 0.07,0.01 0.07,0.01 0.07,0.01 0.07,0.01 0.06,0.02 0.07,0.02 0.06,0.02 0.06,0.02 0.06,0.03 0.06,0.03 0.05,0.04 0.05,0.03 0.05,0.05 0.04,0.04 0.04,0.05 0.02,0.03 0.02,0.03 0.01,0.02 0.02,0.03 0.01,0.03 0.01,0.04 0.02,0.03 0.01,0.04 0.01,0.03 0.01,0.04 v 0.04 l 0.01,0.04 v 0.04 l 0.01,0.04 v 0.04 0.05 c 0,1 -0.95,1 -1.64,1 h -29.84 c -0.71,0 -1.64,0 -1.64,-1 0,-0.98 0.93,-0.98 1.68,-0.98 z"
           id="path3063" /><path
           style="fill:#000000;stroke-width:0"
           inkscape:connector-curvature="0"
           d="m 546.68,412.82 h 0.07 0.06 l 0.14,0.01 h 0.14 0.07 l 0.07,0.01 0.07,0.01 h 0.06 l 0.07,0.01 0.07,0.02 0.07,0.01 0.06,0.02 0.07,0.02 0.06,0.02 0.06,0.02 0.05,0.03 0.06,0.03 0.05,0.04 0.05,0.04 0.05,0.04 0.04,0.05 0.02,0.02 0.02,0.03 0.02,0.02 0.02,0.03 0.01,0.03 0.02,0.03 0.01,0.03 0.01,0.03 0.02,0.04 0.01,0.03 0.01,0.04 0.01,0.04 v 0.04 l 0.01,0.04 v 0.04 l 0.01,0.04 v 0.05 0.04 c 0,1 -0.95,1 -1.69,1 h -29.75 c -0.75,0 -1.68,0 -1.68,-1 0,-1 0.93,-1 1.64,-1 z"
           id="path3065" /><path
           style="fill:#000000;stroke-width:0"
           inkscape:connector-curvature="0"
           d="m 594.46,407.09 0.75,0.31 0.71,0.34 0.68,0.35 0.65,0.38 0.61,0.4 0.58,0.41 0.55,0.44 0.53,0.45 0.49,0.47 0.46,0.48 0.43,0.49 0.41,0.51 0.38,0.52 0.36,0.52 0.32,0.54 0.31,0.55 0.28,0.55 0.25,0.55 0.24,0.56 0.21,0.57 0.19,0.56 0.17,0.57 0.16,0.57 0.13,0.56 0.11,0.57 0.1,0.56 0.08,0.55 0.06,0.55 0.05,0.54 0.03,0.54 0.02,0.52 0.01,0.52 c 0,10.77 -7.24,17.83 -18.3,17.83 l -0.04,-1.99 c 2.68,0 6.57,-1 8.97,-5.23 1.88,-3.34 2.04,-7.63 2.04,-10.56 0,-2.78 0,-10.22 -4.78,-13.5 -1.09,1.64 -2.89,4.28 -6.23,4.28 -2.53,0 -4.83,-1.69 -4.83,-4.08 h 1.8 c 0,1.34 1.43,2.28 3.07,2.28 1.41,0 3.1,-0.55 4.1,-3.69 v 0 c -1.25,-0.54 -2.74,-0.79 -4.1,-0.79 -2.73,0 -3.07,1.61 -3.07,2.2 h -1.8 c 0,-0.3 0.05,-0.84 0.15,-1.09 v 0 c -6.14,2.93 -6.28,10.5 -6.28,14.39 0,2 0,6.73 1.85,10.26 2.59,4.78 6.87,5.53 9.11,5.53 l 0.04,1.99 c -11.4,0 -18.32,-7.36 -18.32,-17.83 0,-10.17 6.78,-17.44 18.32,-17.44 1.11,0 2.75,0.05 4.74,0.46 1.4,-5.65 2.39,-9.58 7.03,-9.58 5.08,0 6.83,5.89 6.83,9.26 0,0.41 0,1.3 -0.91,1.3 -0.73,0 -0.84,-0.64 -0.89,-0.98 -0.3,-1.91 -3.39,-1.96 -4.24,-1.96 -1.13,0 -2.63,0 -4.57,2.94 z"
           id="path3067" /><path
           style="fill:#000000;stroke-width:0"
           inkscape:connector-curvature="0"
           d="m 626.02,409.87 v 0.71 l -0.02,0.68 -0.03,0.66 -0.04,0.64 -0.06,0.62 -0.08,0.6 -0.09,0.57 -0.1,0.56 -0.13,0.55 -0.15,0.53 -0.17,0.51 -0.19,0.5 -0.21,0.49 -0.24,0.48 -0.26,0.47 -0.14,0.23 -0.15,0.23 c -1.08,1.61 -3.23,3 -6.03,3 v -0.98 c 1.89,0 3.7,-1.14 4.33,-3.17 0.56,-1.88 0.59,-4.39 0.59,-7.43 0,-2.57 0,-5.15 -0.45,-7.34 -0.7,-3.17 -3.06,-3.94 -4.47,-3.94 v 0 c -1.59,0 -3.72,0.94 -4.42,3.8 -0.49,2.05 -0.49,4.91 -0.49,7.48 0,2.55 0,5.21 0.52,7.11 0.73,2.75 2.97,3.49 4.39,3.49 v 0.98 c -8.08,0 -8.08,-9.51 -8.08,-12.03 0,-2.5 0,-11.81 8.08,-11.81 8.09,0 8.09,9.31 8.09,11.81 z"
           id="path3069" /><path
           style="fill:#000000;stroke-width:0"
           inkscape:connector-curvature="0"
           d="m 657.77,423.14 0.53,0.14 0.51,0.16 0.5,0.16 0.47,0.18 0.46,0.18 0.44,0.19 0.42,0.2 0.4,0.21 0.39,0.22 0.37,0.22 0.34,0.23 0.34,0.24 0.31,0.24 0.3,0.25 0.28,0.26 0.26,0.26 0.25,0.26 0.22,0.27 0.22,0.28 0.19,0.28 0.18,0.28 0.16,0.29 0.15,0.29 0.13,0.3 0.12,0.29 0.1,0.3 0.08,0.3 0.07,0.31 0.05,0.3 0.04,0.31 0.02,0.3 0.01,0.31 c 0,5.05 -5.49,9.22 -14.85,9.22 H 632.3 v -2.34 h 5.39 v -29.49 h -5.39 v -2.34 c 1.79,0.16 6.68,0.16 8.78,0.16 2.08,0 6.97,0 8.76,-0.16 v 2.34 h -5.39 v 13.85 1.79 13.85 h 5.89 c 8.02,0 8.11,-3.88 8.11,-6.92 0,-2.79 0,-6.93 -8.22,-6.93 h -5.78 v -1.79 h 5.83 c 0.7,0 2.89,0 4.44,-1.69 1.59,-1.75 1.59,-2.69 1.59,-6.33 0,-3.3 0,-5.73 3.49,-7.42 2.2,-1.09 5.28,-1.3 7.32,-1.3 5.33,0 5.99,4.49 5.99,5.28 0,1.1 -0.7,1.1 -1.2,1.1 -1.05,0 -1.1,-0.5 -1.14,-1.14 -0.25,-2.35 -1.69,-3.44 -3.19,-3.44 -2.99,0 -3.44,3.53 -3.69,5.62 -0.09,0.55 -0.5,3.99 -0.55,4.24 -0.7,3.48 -3.43,5.03 -5.57,5.83 z"
           id="path3071" /><path
           style="fill:#000000;stroke-width:0"
           inkscape:connector-curvature="0"
           d="m 681.13,432.14 h 0.1 0.1 0.12 0.12 0.14 l 0.14,0.01 H 682 l 0.15,0.01 0.16,0.01 0.17,0.01 h 0.18 l 0.18,0.02 0.18,0.01 0.19,0.01 0.38,0.04 0.4,0.04 0.4,0.05 0.41,0.06 0.4,0.07 0.41,0.08 0.19,0.04 0.2,0.05 0.19,0.05 0.19,0.05 0.18,0.06 0.18,0.06 c 2.58,0.91 3.06,2.58 3.06,3.63 0,1.92 -1.92,3.06 -4.32,3.06 v -0.97 c 1.53,0 2.82,-0.77 2.82,-2.09 0,-3.38 -5.89,-3.38 -7.39,-3.38 h -1.7 c 1.42,5.05 5.3,5.47 6.27,5.47 v 0.97 c -4.18,0 -9.83,-3.2 -9.83,-9.16 0,-3.51 2.2,-6.54 6.28,-6.54 5.89,0 8.64,3.43 8.64,3.93 0,0.21 -0.31,0.6 -0.59,0.6 -0.21,0 -0.28,-0.08 -0.57,-0.36 -2.71,-3.21 -6.79,-3.21 -7.42,-3.21 -2.09,0 -3.48,1.39 -3.48,4.22 0,0.49 0,1.19 0.42,3.1 z"
           id="path3073" /></g>    </g>
    <g
       id="g3271"
       transform="matrix(0.7,0,0,0.7,60.31684,212.85216)">
      <g
         word-spacing="normal"
         letter-spacing="normal"
         font-size-adjust="none"
         font-stretch="normal"
         font-weight="normal"
         font-variant="normal"
         font-style="normal"
         stroke-miterlimit="10.433"
         xml:space="preserve"
         transform="matrix(0.11792857,0,0,-0.11792857,-20.6375,76.2)"
         id="g3269"
         style="font-style:normal;font-variant:normal;font-weight:normal;font-stretch:normal;letter-spacing:normal;word-spacing:normal;text-anchor:start;fill:none;fill-opacity:1;fill-rule:evenodd;stroke:#000000;stroke-linecap:butt;stroke-linejoin:miter;stroke-miterlimit:10.43299961;stroke-dasharray:none;stroke-dashoffset:0;stroke-opacity:1"><path
           id="path3267"
           d="m 472.41,428.32 h -0.48 l -0.47,-0.02 -0.46,-0.04 -0.45,-0.04 -0.88,-0.13 -0.84,-0.18 -0.82,-0.22 -0.78,-0.27 -0.75,-0.31 -0.71,-0.34 -0.69,-0.38 -0.65,-0.41 -0.62,-0.44 -0.59,-0.47 -0.56,-0.5 -0.53,-0.51 -0.5,-0.54 -0.47,-0.56 -0.44,-0.57 -0.4,-0.58 -0.38,-0.59 -0.35,-0.6 -0.32,-0.61 -0.29,-0.61 -0.26,-0.61 -0.24,-0.6 -0.2,-0.61 -0.18,-0.59 -0.15,-0.59 -0.12,-0.57 -0.1,-0.56 -0.06,-0.54 -0.04,-0.52 -0.02,-0.5 c 0,-5.37 4.03,-7.92 9.36,-7.92 l 0.11,1.8 c -4.34,0 -4.34,3.48 -4.34,4.28 0,1.91 1.09,6.64 2.25,8.49 1,1.68 2.64,3.18 6.42,3.18 4.09,0 4.59,-1.7 4.59,-3.5 0,-1.48 -1,-6.47 -2.59,-8.9 -2.05,-3.1 -4.94,-3.55 -6.33,-3.55 v 0 l -0.11,-1.8 c 9.13,0 14.41,6.89 14.41,13.96 0,1.25 -0.2,2.59 -0.7,3.79 h 4.78 c 0.95,0 1.75,0 2.5,0.74 0.34,0.36 1,0.95 1,2.09 0,1.95 -1.75,1.95 -2.64,1.95 z"
           inkscape:connector-curvature="0"
           style="fill:#000000;stroke-width:0" /></g>    </g>
    <g
       id="g3901"
       transform="matrix(0.7,0,0,0.7,60.912902,218.25808)">
      <g
         id="g3899"
         transform="matrix(0.11792857,0,0,-0.11792857,-20.6375,76.2)"
         xml:space="preserve"
         stroke-miterlimit="10.433"
         font-style="normal"
         font-variant="normal"
         font-weight="normal"
         font-stretch="normal"
         font-size-adjust="none"
         letter-spacing="normal"
         word-spacing="normal"
         style="font-style:normal;font-variant:normal;font-weight:normal;font-stretch:normal;letter-spacing:normal;word-spacing:normal;text-anchor:start;fill:none;fill-opacity:1;fill-rule:evenodd;stroke:#000000;stroke-linecap:butt;stroke-linejoin:miter;stroke-miterlimit:10.43299961;stroke-dasharray:none;stroke-dashoffset:0;stroke-opacity:1"><path
           d="m 487.55,419.86 h -2.34 c -0.39,-3.44 -1.24,-11.32 -10.16,-11.32 h -5.14 v 29.49 h 6.73 v 2.34 c -2.18,-0.14 -7.62,-0.14 -10.06,-0.14 -2.19,0 -7.22,0 -9.12,0.14 v -2.34 h 5.39 v -29.49 h -5.39 V 406.2 H 486 Z"
           id="path3897"
           inkscape:connector-curvature="0"
           style="fill:#000000;stroke-width:0" /></g>    </g>
    <g
       id="g4127"
       transform="matrix(0.7,0,0,0.7,14.216583,212.47931)">
      <g
         word-spacing="normal"
         letter-spacing="normal"
         font-size-adjust="none"
         font-stretch="normal"
         font-weight="normal"
         font-variant="normal"
         font-style="normal"
         stroke-miterlimit="10.433"
         xml:space="preserve"
         transform="matrix(0.11792857,0,0,-0.11792857,-20.6375,76.2)"
         id="g4125"
         style="font-style:normal;font-variant:normal;font-weight:normal;font-stretch:normal;letter-spacing:normal;word-spacing:normal;text-anchor:start;fill:none;fill-opacity:1;fill-rule:evenodd;stroke:#000000;stroke-linecap:butt;stroke-linejoin:miter;stroke-miterlimit:10.43299961;stroke-dasharray:none;stroke-dashoffset:0;stroke-opacity:1"><polygon
           id="polygon4119"
           points="463.76,446.77 481.74,446.77 481.74,448.31 463.76,448.31 "
           style="fill:#000000;stroke-width:0" /><path
           id="path4121"
           d="m 487.55,419.86 h -2.34 c -0.39,-3.44 -1.24,-11.32 -10.16,-11.32 h -5.14 v 29.49 h 6.73 v 2.34 c -2.18,-0.14 -7.62,-0.14 -10.06,-0.14 -2.19,0 -7.22,0 -9.12,0.14 v -2.34 h 5.39 v -29.49 h -5.39 V 406.2 H 486 Z"
           inkscape:connector-curvature="0"
           style="fill:#000000;stroke-width:0" /><path
           id="path4123"
           d="m 492.57,419.95 -0.02,-0.09 -0.02,-0.09 -0.02,-0.08 -0.02,-0.08 -0.02,-0.07 -0.02,-0.07 -0.03,-0.07 -0.02,-0.06 -0.02,-0.06 -0.03,-0.06 -0.03,-0.05 -0.02,-0.05 -0.04,-0.05 -0.03,-0.04 -0.04,-0.04 -0.04,-0.03 -0.04,-0.04 -0.05,-0.03 -0.05,-0.03 -0.05,-0.02 -0.06,-0.03 -0.07,-0.02 -0.07,-0.02 -0.07,-0.01 -0.08,-0.02 h -0.05 l -0.04,-0.01 -0.04,-0.01 h -0.05 -0.05 l -0.05,-0.01 h -0.05 -0.06 l -0.05,-0.01 h -0.06 -0.06 -0.06 -0.06 -0.06 c -0.46,0 -0.94,0 -0.94,-0.74 0,-0.39 0.31,-0.53 0.48,-0.53 0.91,0 2.07,0.14 3,0.14 1.19,0 2.5,-0.14 3.66,-0.14 0.31,0 0.7,0.11 0.7,0.77 0,0.5 -0.5,0.5 -0.9,0.5 -0.78,0 -1.72,0 -1.72,0.41 0,0.18 0.25,1.09 0.39,1.6 0.42,1.85 0.91,3.74 1.28,5.19 0.42,-0.69 1.5,-2.04 3.59,-2.04 v 0.96 c -2.46,0 -3.09,2.69 -3.09,3.04 0,0.14 0.06,0.39 0.09,0.53 l 1.75,7 c 2.02,2.68 3.77,3.2 4.88,3.2 1.36,0 2.55,-1.02 2.55,-3.38 0,-1.43 -0.77,-4.98 -1.82,-7.01 -0.87,-1.7 -2.57,-3.38 -4.36,-3.38 v -0.96 c 4.25,0 8.96,4.7 8.96,9.89 0,4.07 -2.83,5.81 -5.22,5.81 -2.17,0 -4.02,-1.45 -4.95,-2.44 -0.6,1.99 -2.55,2.44 -3.6,2.44 -1.36,0 -2.19,-0.91 -2.75,-1.85 -0.7,-1.18 -1.25,-3.26 -1.25,-3.48 0,-0.45 0.49,-0.45 0.6,-0.45 0.48,0 0.51,0.11 0.76,1.04 0.52,2.04 1.19,3.77 2.55,3.77 0.9,0 1.14,-0.77 1.14,-1.7 0,-0.39 -0.06,-0.85 -0.11,-1.05 z"
           inkscape:connector-curvature="0"
           style="fill:#000000;stroke-width:0" /></g>    </g>
    <g
       id="g4355"
       transform="matrix(0.7,0,0,0.7,60.801876,227.68417)">
      <g
         id="g4353"
         transform="matrix(0.11792857,0,0,-0.11792857,-20.6375,76.2)"
         xml:space="preserve"
         stroke-miterlimit="10.433"
         font-style="normal"
         font-variant="normal"
         font-weight="normal"
         font-stretch="normal"
         font-size-adjust="none"
         letter-spacing="normal"
         word-spacing="normal"
         style="font-style:normal;font-variant:normal;font-weight:normal;font-stretch:normal;letter-spacing:normal;word-spacing:normal;text-anchor:start;fill:none;fill-opacity:1;fill-rule:evenodd;stroke:#000000;stroke-linecap:butt;stroke-linejoin:miter;stroke-miterlimit:10.43299961;stroke-dasharray:none;stroke-dashoffset:0;stroke-opacity:1"><path
           d="m 476.35,408.34 v -2.44 l 9.11,0.3 v 2.34 c -3.08,0 -3.44,0 -3.44,1.94 v 30.3 l -8.81,-0.41 v -2.34 c 3.09,0 3.43,0 3.43,-1.94 v -9.72 c -2.48,1.95 -5.07,2.25 -6.73,2.25 l 0.5,-1.8 c 2.84,0 4.84,-1.59 5.94,-3.03 v 0 -12.47 c -0.66,-0.89 -2.69,-3.62 -6.49,-3.62 -6.07,0 -6.07,6.01 -6.07,9.51 0,2.4 0,5.08 1.29,7.02 1.46,2.09 3.8,2.59 5.33,2.59 l -0.5,1.8 c -7.27,0 -12.5,-4.39 -12.5,-11.41 0,-6.57 4.59,-11.31 11.95,-11.31 3.05,0 5.44,1.19 6.99,2.44 z"
           id="path4347"
           inkscape:connector-curvature="0"
           style="fill:#000000;stroke-width:0" /><path
           d="m 498.62,420.54 v 0.05 l -0.01,0.06 v 0.05 l -0.01,0.06 -0.01,0.05 -0.02,0.06 -0.02,0.05 -0.01,0.06 -0.03,0.06 -0.02,0.05 -0.03,0.06 -0.03,0.05 -0.03,0.06 -0.04,0.05 -0.04,0.05 -0.04,0.05 -0.04,0.05 -0.05,0.05 -0.05,0.04 -0.05,0.05 -0.06,0.04 -0.06,0.03 -0.06,0.04 -0.06,0.03 -0.07,0.03 -0.07,0.03 -0.08,0.02 -0.08,0.02 -0.08,0.01 -0.08,0.01 -0.09,0.01 h -0.09 c -0.94,0 -1.95,-0.91 -1.95,-1.92 0,-0.59 0.45,-1.33 1.4,-1.33 1,0 1.96,0.99 1.96,1.92 z"
           id="path4349"
           inkscape:connector-curvature="0"
           style="fill:#000000;stroke-width:0" /><path
           d="m 491.51,402.84 -0.06,-0.17 -0.05,-0.17 -0.03,-0.08 -0.02,-0.09 -0.03,-0.08 -0.02,-0.09 -0.02,-0.09 -0.02,-0.09 -0.02,-0.1 -0.02,-0.09 -0.01,-0.1 v -0.05 l -0.01,-0.05 v -0.06 -0.05 -0.05 -0.06 c 0,-1.64 1.39,-2.95 3.29,-2.95 3.49,0 5.03,4.79 5.03,5.33 0,0.45 -0.45,0.45 -0.56,0.45 -0.48,0 -0.53,-0.2 -0.67,-0.59 -0.8,-2.79 -2.33,-4.22 -3.69,-4.22 -0.7,0 -0.87,0.45 -0.87,1.22 0,0.79 0.25,1.46 0.56,2.23 0.34,0.94 0.73,1.87 1.11,2.78 0.31,0.84 1.58,4.02 1.72,4.44 0.09,0.34 0.2,0.76 0.2,1.11 0,1.64 -1.39,2.95 -3.31,2.95 -3.46,0 -5.05,-4.73 -5.05,-5.33 0,-0.45 0.49,-0.45 0.59,-0.45 0.49,0 0.52,0.17 0.63,0.56 0.91,3 2.44,4.25 3.72,4.25 0.56,0 0.87,-0.28 0.87,-1.22 0,-0.79 -0.2,-1.32 -1.07,-3.48 z"
           id="path4351"
           inkscape:connector-curvature="0"
           style="fill:#000000;stroke-width:0" /></g>    </g>
    <g
       id="g4585"
       transform="matrix(0.7,0,0,0.7,65.485103,222.28661)">
      <g
         word-spacing="normal"
         letter-spacing="normal"
         font-size-adjust="none"
         font-stretch="normal"
         font-weight="normal"
         font-variant="normal"
         font-style="normal"
         stroke-miterlimit="10.433"
         xml:space="preserve"
         transform="matrix(0.11792857,0,0,-0.11792857,-20.6375,76.2)"
         id="g4583"
         style="font-style:normal;font-variant:normal;font-weight:normal;font-stretch:normal;letter-spacing:normal;word-spacing:normal;text-anchor:start;fill:none;fill-opacity:1;fill-rule:evenodd;stroke:#000000;stroke-linecap:butt;stroke-linejoin:miter;stroke-miterlimit:10.43299961;stroke-dasharray:none;stroke-dashoffset:0;stroke-opacity:1"><path
           id="path4577"
           d="m 461.19,423.93 v -15.39 h -3.44 v -2.34 c 1.41,0.05 4.39,0.16 6.29,0.16 1.95,0 4.89,-0.11 6.28,-0.16 v 2.34 h -3.44 v 10.41 c 0,5.44 4.28,7.87 7.42,7.87 1.7,0 2.74,-1.04 2.74,-4.82 v -13.46 h -3.44 v -2.34 c 1.4,0.05 4.39,0.16 6.28,0.16 1.95,0 4.89,-0.11 6.28,-0.16 v 2.34 h -3.44 v 12.91 c 0,5.23 -2.68,7.17 -7.67,7.17 -4.78,0 -7.42,-2.84 -8.72,-5.39 v 5.39 l -8.58,-0.41 v -2.34 c 3.1,0 3.44,0 3.44,-1.94 z"
           inkscape:connector-curvature="0"
           style="fill:#000000;stroke-width:0" /><path
           id="path4579"
           d="m 498.62,420.54 v 0.05 l -0.01,0.06 v 0.05 l -0.01,0.06 -0.01,0.05 -0.02,0.06 -0.02,0.05 -0.01,0.06 -0.03,0.06 -0.02,0.05 -0.03,0.06 -0.03,0.05 -0.03,0.06 -0.04,0.05 -0.04,0.05 -0.04,0.05 -0.04,0.05 -0.05,0.05 -0.05,0.04 -0.05,0.05 -0.06,0.04 -0.06,0.03 -0.06,0.04 -0.06,0.03 -0.07,0.03 -0.07,0.03 -0.08,0.02 -0.08,0.02 -0.08,0.01 -0.08,0.01 -0.09,0.01 h -0.09 c -0.94,0 -1.95,-0.91 -1.95,-1.92 0,-0.59 0.45,-1.33 1.4,-1.33 1,0 1.96,0.99 1.96,1.92 z"
           inkscape:connector-curvature="0"
           style="fill:#000000;stroke-width:0" /><path
           id="path4581"
           d="m 491.51,402.84 -0.06,-0.17 -0.05,-0.17 -0.03,-0.08 -0.02,-0.09 -0.03,-0.08 -0.02,-0.09 -0.02,-0.09 -0.02,-0.09 -0.02,-0.1 -0.02,-0.09 -0.01,-0.1 v -0.05 l -0.01,-0.05 v -0.06 -0.05 -0.05 -0.06 c 0,-1.64 1.39,-2.95 3.29,-2.95 3.49,0 5.03,4.79 5.03,5.33 0,0.45 -0.45,0.45 -0.56,0.45 -0.48,0 -0.53,-0.2 -0.67,-0.59 -0.8,-2.79 -2.33,-4.22 -3.69,-4.22 -0.7,0 -0.87,0.45 -0.87,1.22 0,0.79 0.25,1.46 0.56,2.23 0.34,0.94 0.73,1.87 1.11,2.78 0.31,0.84 1.58,4.02 1.72,4.44 0.09,0.34 0.2,0.76 0.2,1.11 0,1.64 -1.39,2.95 -3.31,2.95 -3.46,0 -5.05,-4.73 -5.05,-5.33 0,-0.45 0.49,-0.45 0.59,-0.45 0.49,0 0.52,0.17 0.63,0.56 0.91,3 2.44,4.25 3.72,4.25 0.56,0 0.87,-0.28 0.87,-1.22 0,-0.79 -0.2,-1.32 -1.07,-3.48 z"
           inkscape:connector-curvature="0"
           style="fill:#000000;stroke-width:0" /></g>    </g>
    <g
       id="g4827"
       transform="matrix(0.7,0,0,0.7,24.7265,224.82328)">
      <g
         id="g4825"
         transform="matrix(0.11792857,0,0,-0.11792857,-20.6375,76.2)"
         xml:space="preserve"
         stroke-miterlimit="10.433"
         font-style="normal"
         font-variant="normal"
         font-weight="normal"
         font-stretch="normal"
         font-size-adjust="none"
         letter-spacing="normal"
         word-spacing="normal"
         style="font-style:normal;font-variant:normal;font-weight:normal;font-stretch:normal;letter-spacing:normal;word-spacing:normal;text-anchor:start;fill:none;fill-opacity:1;fill-rule:evenodd;stroke:#000000;stroke-linecap:butt;stroke-linejoin:miter;stroke-miterlimit:10.43299961;stroke-dasharray:none;stroke-dashoffset:0;stroke-opacity:1"><polygon
           points="462.44,434.77 480.42,434.77 480.42,436.31 462.44,436.31 "
           id="polygon4817"
           style="fill:#000000;stroke-width:0" /><path
           d="m 461.19,423.93 v -15.39 h -3.44 v -2.34 c 1.41,0.05 4.39,0.16 6.29,0.16 1.95,0 4.89,-0.11 6.28,-0.16 v 2.34 h -3.44 v 10.41 c 0,5.44 4.28,7.87 7.42,7.87 1.7,0 2.74,-1.04 2.74,-4.82 v -13.46 h -3.44 v -2.34 c 1.4,0.05 4.39,0.16 6.28,0.16 1.95,0 4.89,-0.11 6.28,-0.16 v 2.34 h -3.44 v 12.91 c 0,5.23 -2.68,7.17 -7.67,7.17 -4.78,0 -7.42,-2.84 -8.72,-5.39 v 5.39 l -8.58,-0.41 v -2.34 c 3.1,0 3.44,0 3.44,-1.94 z"
           id="path4819"
           inkscape:connector-curvature="0"
           style="fill:#000000;stroke-width:0" /><path
           d="m 498.62,420.54 v 0.05 l -0.01,0.06 v 0.05 l -0.01,0.06 -0.01,0.05 -0.02,0.06 -0.02,0.05 -0.01,0.06 -0.03,0.06 -0.02,0.05 -0.03,0.06 -0.03,0.05 -0.03,0.06 -0.04,0.05 -0.04,0.05 -0.04,0.05 -0.04,0.05 -0.05,0.05 -0.05,0.04 -0.05,0.05 -0.06,0.04 -0.06,0.03 -0.06,0.04 -0.06,0.03 -0.07,0.03 -0.07,0.03 -0.08,0.02 -0.08,0.02 -0.08,0.01 -0.08,0.01 -0.09,0.01 h -0.09 c -0.94,0 -1.95,-0.91 -1.95,-1.92 0,-0.59 0.45,-1.33 1.4,-1.33 1,0 1.96,0.99 1.96,1.92 z"
           id="path4821"
           inkscape:connector-curvature="0"
           style="fill:#000000;stroke-width:0" /><path
           d="m 491.51,402.84 -0.06,-0.17 -0.05,-0.17 -0.03,-0.08 -0.02,-0.09 -0.03,-0.08 -0.02,-0.09 -0.02,-0.09 -0.02,-0.09 -0.02,-0.1 -0.02,-0.09 -0.01,-0.1 v -0.05 l -0.01,-0.05 v -0.06 -0.05 -0.05 -0.06 c 0,-1.64 1.39,-2.95 3.29,-2.95 3.49,0 5.03,4.79 5.03,5.33 0,0.45 -0.45,0.45 -0.56,0.45 -0.48,0 -0.53,-0.2 -0.67,-0.59 -0.8,-2.79 -2.33,-4.22 -3.69,-4.22 -0.7,0 -0.87,0.45 -0.87,1.22 0,0.79 0.25,1.46 0.56,2.23 0.34,0.94 0.73,1.87 1.11,2.78 0.31,0.84 1.58,4.02 1.72,4.44 0.09,0.34 0.2,0.76 0.2,1.11 0,1.64 -1.39,2.95 -3.31,2.95 -3.46,0 -5.05,-4.73 -5.05,-5.33 0,-0.45 0.49,-0.45 0.59,-0.45 0.49,0 0.52,0.17 0.63,0.56 0.91,3 2.44,4.25 3.72,4.25 0.56,0 0.87,-0.28 0.87,-1.22 0,-0.79 -0.2,-1.32 -1.07,-3.48 z"
           id="path4823"
           inkscape:connector-curvature="0"
           style="fill:#000000;stroke-width:0" /></g>    </g>
    <g
       id="g5081"
       transform="matrix(0.7,0,0,0.7,18.172386,219.39288)">
      <g
         word-spacing="normal"
         letter-spacing="normal"
         font-size-adjust="none"
         font-stretch="normal"
         font-weight="normal"
         font-variant="normal"
         font-style="normal"
         stroke-miterlimit="10.433"
         xml:space="preserve"
         transform="matrix(0.11792857,0,0,-0.11792857,-20.6375,76.2)"
         id="g5079"
         style="font-style:normal;font-variant:normal;font-weight:normal;font-stretch:normal;letter-spacing:normal;word-spacing:normal;text-anchor:start;fill:none;fill-opacity:1;fill-rule:evenodd;stroke:#000000;stroke-linecap:butt;stroke-linejoin:miter;stroke-miterlimit:10.43299961;stroke-dasharray:none;stroke-dashoffset:0;stroke-opacity:1"><polygon
           id="polygon5071"
           points="462.44,447.12 480.42,447.12 480.42,448.67 462.44,448.67 "
           style="fill:#000000;stroke-width:0" /><path
           id="path5073"
           d="m 476.35,408.34 v -2.44 l 9.11,0.3 v 2.34 c -3.08,0 -3.44,0 -3.44,1.94 v 30.3 l -8.81,-0.41 v -2.34 c 3.09,0 3.43,0 3.43,-1.94 v -9.72 c -2.48,1.95 -5.07,2.25 -6.73,2.25 l 0.5,-1.8 c 2.84,0 4.84,-1.59 5.94,-3.03 v 0 -12.47 c -0.66,-0.89 -2.69,-3.62 -6.49,-3.62 -6.07,0 -6.07,6.01 -6.07,9.51 0,2.4 0,5.08 1.29,7.02 1.46,2.09 3.8,2.59 5.33,2.59 l -0.5,1.8 c -7.27,0 -12.5,-4.39 -12.5,-11.41 0,-6.57 4.59,-11.31 11.95,-11.31 3.05,0 5.44,1.19 6.99,2.44 z"
           inkscape:connector-curvature="0"
           style="fill:#000000;stroke-width:0" /><path
           id="path5075"
           d="m 498.62,420.54 v 0.05 l -0.01,0.06 v 0.05 l -0.01,0.06 -0.01,0.05 -0.02,0.06 -0.02,0.05 -0.01,0.06 -0.03,0.06 -0.02,0.05 -0.03,0.06 -0.03,0.05 -0.03,0.06 -0.04,0.05 -0.04,0.05 -0.04,0.05 -0.04,0.05 -0.05,0.05 -0.05,0.04 -0.05,0.05 -0.06,0.04 -0.06,0.03 -0.06,0.04 -0.06,0.03 -0.07,0.03 -0.07,0.03 -0.08,0.02 -0.08,0.02 -0.08,0.01 -0.08,0.01 -0.09,0.01 h -0.09 c -0.94,0 -1.95,-0.91 -1.95,-1.92 0,-0.59 0.45,-1.33 1.4,-1.33 1,0 1.96,0.99 1.96,1.92 z"
           inkscape:connector-curvature="0"
           style="fill:#000000;stroke-width:0" /><path
           id="path5077"
           d="m 491.51,402.84 -0.06,-0.17 -0.05,-0.17 -0.03,-0.08 -0.02,-0.09 -0.03,-0.08 -0.02,-0.09 -0.02,-0.09 -0.02,-0.09 -0.02,-0.1 -0.02,-0.09 -0.01,-0.1 v -0.05 l -0.01,-0.05 v -0.06 -0.05 -0.05 -0.06 c 0,-1.64 1.39,-2.95 3.29,-2.95 3.49,0 5.03,4.79 5.03,5.33 0,0.45 -0.45,0.45 -0.56,0.45 -0.48,0 -0.53,-0.2 -0.67,-0.59 -0.8,-2.79 -2.33,-4.22 -3.69,-4.22 -0.7,0 -0.87,0.45 -0.87,1.22 0,0.79 0.25,1.46 0.56,2.23 0.34,0.94 0.73,1.87 1.11,2.78 0.31,0.84 1.58,4.02 1.72,4.44 0.09,0.34 0.2,0.76 0.2,1.11 0,1.64 -1.39,2.95 -3.31,2.95 -3.46,0 -5.05,-4.73 -5.05,-5.33 0,-0.45 0.49,-0.45 0.59,-0.45 0.49,0 0.52,0.17 0.63,0.56 0.91,3 2.44,4.25 3.72,4.25 0.56,0 0.87,-0.28 0.87,-1.22 0,-0.79 -0.2,-1.32 -1.07,-3.48 z"
           inkscape:connector-curvature="0"
           style="fill:#000000;stroke-width:0" /></g>    </g>
    <g
       id="g5347"
       transform="matrix(0.7,0,0,0.7,18.306021,251.79732)">
      <g
         id="g5345"
         transform="matrix(0.11792857,0,0,-0.11792857,-20.6375,76.2)"
         xml:space="preserve"
         stroke-miterlimit="10.433"
         font-style="normal"
         font-variant="normal"
         font-weight="normal"
         font-stretch="normal"
         font-size-adjust="none"
         letter-spacing="normal"
         word-spacing="normal"
         style="font-style:normal;font-variant:normal;font-weight:normal;font-stretch:normal;letter-spacing:normal;word-spacing:normal;text-anchor:start;fill:none;fill-opacity:1;fill-rule:evenodd;stroke:#000000;stroke-linecap:butt;stroke-linejoin:miter;stroke-miterlimit:10.43299961;stroke-dasharray:none;stroke-dashoffset:0;stroke-opacity:1"><path
           d="m 479.72,451.81 -0.8,0.75 c 0,-0.04 -1.89,-2.39 -4.08,-2.39 -1.14,0 -2.39,0.75 -3.23,1.25 -1.34,0.8 -2.25,1.14 -3.09,1.14 -1.9,0 -2.85,-1.09 -5.38,-3.89 l 0.8,-0.75 c 0,0.06 1.89,2.39 4.08,2.39 1.14,0 2.39,-0.73 3.23,-1.23 1.34,-0.8 2.25,-1.16 3.09,-1.16 1.89,0 2.85,1.11 5.38,3.89 z"
           id="path5337"
           inkscape:connector-curvature="0"
           style="fill:#000000;stroke-width:0" /><path
           d="m 476.35,408.34 v -2.44 l 9.11,0.3 v 2.34 c -3.08,0 -3.44,0 -3.44,1.94 v 30.3 l -8.81,-0.41 v -2.34 c 3.09,0 3.43,0 3.43,-1.94 v -9.72 c -2.48,1.95 -5.07,2.25 -6.73,2.25 l 0.5,-1.8 c 2.84,0 4.84,-1.59 5.94,-3.03 v 0 -12.47 c -0.66,-0.89 -2.69,-3.62 -6.49,-3.62 -6.07,0 -6.07,6.01 -6.07,9.51 0,2.4 0,5.08 1.29,7.02 1.46,2.09 3.8,2.59 5.33,2.59 l -0.5,1.8 c -7.27,0 -12.5,-4.39 -12.5,-11.41 0,-6.57 4.59,-11.31 11.95,-11.31 3.05,0 5.44,1.19 6.99,2.44 z"
           id="path5339"
           inkscape:connector-curvature="0"
           style="fill:#000000;stroke-width:0" /><path
           d="m 498.62,420.54 v 0.05 l -0.01,0.06 v 0.05 l -0.01,0.06 -0.01,0.05 -0.02,0.06 -0.02,0.05 -0.01,0.06 -0.03,0.06 -0.02,0.05 -0.03,0.06 -0.03,0.05 -0.03,0.06 -0.04,0.05 -0.04,0.05 -0.04,0.05 -0.04,0.05 -0.05,0.05 -0.05,0.04 -0.05,0.05 -0.06,0.04 -0.06,0.03 -0.06,0.04 -0.06,0.03 -0.07,0.03 -0.07,0.03 -0.08,0.02 -0.08,0.02 -0.08,0.01 -0.08,0.01 -0.09,0.01 h -0.09 c -0.94,0 -1.95,-0.91 -1.95,-1.92 0,-0.59 0.45,-1.33 1.4,-1.33 1,0 1.96,0.99 1.96,1.92 z"
           id="path5341"
           inkscape:connector-curvature="0"
           style="fill:#000000;stroke-width:0" /><path
           d="m 491.51,402.84 -0.06,-0.17 -0.05,-0.17 -0.03,-0.08 -0.02,-0.09 -0.03,-0.08 -0.02,-0.09 -0.02,-0.09 -0.02,-0.09 -0.02,-0.1 -0.02,-0.09 -0.01,-0.1 v -0.05 l -0.01,-0.05 v -0.06 -0.05 -0.05 -0.06 c 0,-1.64 1.39,-2.95 3.29,-2.95 3.49,0 5.03,4.79 5.03,5.33 0,0.45 -0.45,0.45 -0.56,0.45 -0.48,0 -0.53,-0.2 -0.67,-0.59 -0.8,-2.79 -2.33,-4.22 -3.69,-4.22 -0.7,0 -0.87,0.45 -0.87,1.22 0,0.79 0.25,1.46 0.56,2.23 0.34,0.94 0.73,1.87 1.11,2.78 0.31,0.84 1.58,4.02 1.72,4.44 0.09,0.34 0.2,0.76 0.2,1.11 0,1.64 -1.39,2.95 -3.31,2.95 -3.46,0 -5.05,-4.73 -5.05,-5.33 0,-0.45 0.49,-0.45 0.59,-0.45 0.49,0 0.52,0.17 0.63,0.56 0.91,3 2.44,4.25 3.72,4.25 0.56,0 0.87,-0.28 0.87,-1.22 0,-0.79 -0.2,-1.32 -1.07,-3.48 z"
           id="path5343"
           inkscape:connector-curvature="0"
           style="fill:#000000;stroke-width:0" /></g>    </g>
    <g
       id="g5625"
       transform="matrix(0.7,0,0,0.7,16.04024,257.09408)">
      <g
         word-spacing="normal"
         letter-spacing="normal"
         font-size-adjust="none"
         font-stretch="normal"
         font-weight="normal"
         font-variant="normal"
         font-style="normal"
         stroke-miterlimit="10.433"
         xml:space="preserve"
         transform="matrix(0.11792857,0,0,-0.11792857,-20.6375,76.2)"
         id="g5623"
         style="font-style:normal;font-variant:normal;font-weight:normal;font-stretch:normal;letter-spacing:normal;word-spacing:normal;text-anchor:start;fill:none;fill-opacity:1;fill-rule:evenodd;stroke:#000000;stroke-linecap:butt;stroke-linejoin:miter;stroke-miterlimit:10.43299961;stroke-dasharray:none;stroke-dashoffset:0;stroke-opacity:1"><path
           id="path5615"
           d="m 479.72,439.45 -0.8,0.75 c 0,-0.04 -1.89,-2.39 -4.08,-2.39 -1.14,0 -2.39,0.75 -3.23,1.25 -1.34,0.8 -2.25,1.14 -3.09,1.14 -1.9,0 -2.85,-1.09 -5.38,-3.89 l 0.8,-0.75 c 0,0.06 1.89,2.39 4.08,2.39 1.14,0 2.39,-0.73 3.23,-1.23 1.34,-0.8 2.25,-1.16 3.09,-1.16 1.89,0 2.85,1.11 5.38,3.89 z"
           inkscape:connector-curvature="0"
           style="fill:#000000;stroke-width:0" /><path
           id="path5617"
           d="m 461.19,423.93 v -15.39 h -3.44 v -2.34 c 1.41,0.05 4.39,0.16 6.29,0.16 1.95,0 4.89,-0.11 6.28,-0.16 v 2.34 h -3.44 v 10.41 c 0,5.44 4.28,7.87 7.42,7.87 1.7,0 2.74,-1.04 2.74,-4.82 v -13.46 h -3.44 v -2.34 c 1.4,0.05 4.39,0.16 6.28,0.16 1.95,0 4.89,-0.11 6.28,-0.16 v 2.34 h -3.44 v 12.91 c 0,5.23 -2.68,7.17 -7.67,7.17 -4.78,0 -7.42,-2.84 -8.72,-5.39 v 5.39 l -8.58,-0.41 v -2.34 c 3.1,0 3.44,0 3.44,-1.94 z"
           inkscape:connector-curvature="0"
           style="fill:#000000;stroke-width:0" /><path
           id="path5619"
           d="m 498.62,420.54 v 0.05 l -0.01,0.06 v 0.05 l -0.01,0.06 -0.01,0.05 -0.02,0.06 -0.02,0.05 -0.01,0.06 -0.03,0.06 -0.02,0.05 -0.03,0.06 -0.03,0.05 -0.03,0.06 -0.04,0.05 -0.04,0.05 -0.04,0.05 -0.04,0.05 -0.05,0.05 -0.05,0.04 -0.05,0.05 -0.06,0.04 -0.06,0.03 -0.06,0.04 -0.06,0.03 -0.07,0.03 -0.07,0.03 -0.08,0.02 -0.08,0.02 -0.08,0.01 -0.08,0.01 -0.09,0.01 h -0.09 c -0.94,0 -1.95,-0.91 -1.95,-1.92 0,-0.59 0.45,-1.33 1.4,-1.33 1,0 1.96,0.99 1.96,1.92 z"
           inkscape:connector-curvature="0"
           style="fill:#000000;stroke-width:0" /><path
           id="path5621"
           d="m 491.51,402.84 -0.06,-0.17 -0.05,-0.17 -0.03,-0.08 -0.02,-0.09 -0.03,-0.08 -0.02,-0.09 -0.02,-0.09 -0.02,-0.09 -0.02,-0.1 -0.02,-0.09 -0.01,-0.1 v -0.05 l -0.01,-0.05 v -0.06 -0.05 -0.05 -0.06 c 0,-1.64 1.39,-2.95 3.29,-2.95 3.49,0 5.03,4.79 5.03,5.33 0,0.45 -0.45,0.45 -0.56,0.45 -0.48,0 -0.53,-0.2 -0.67,-0.59 -0.8,-2.79 -2.33,-4.22 -3.69,-4.22 -0.7,0 -0.87,0.45 -0.87,1.22 0,0.79 0.25,1.46 0.56,2.23 0.34,0.94 0.73,1.87 1.11,2.78 0.31,0.84 1.58,4.02 1.72,4.44 0.09,0.34 0.2,0.76 0.2,1.11 0,1.64 -1.39,2.95 -3.31,2.95 -3.46,0 -5.05,-4.73 -5.05,-5.33 0,-0.45 0.49,-0.45 0.59,-0.45 0.49,0 0.52,0.17 0.63,0.56 0.91,3 2.44,4.25 3.72,4.25 0.56,0 0.87,-0.28 0.87,-1.22 0,-0.79 -0.2,-1.32 -1.07,-3.48 z"
           inkscape:connector-curvature="0"
           style="fill:#000000;stroke-width:0" /></g>    </g>
    <g
       id="g5909"
       transform="matrix(0.7,0,0,0.7,65.741223,210.35386)">
      <g
         id="g5907"
         transform="matrix(0.11792857,0,0,-0.11792857,-20.6375,76.2)"
         xml:space="preserve"
         stroke-miterlimit="10.433"
         font-style="normal"
         font-variant="normal"
         font-weight="normal"
         font-stretch="normal"
         font-size-adjust="none"
         letter-spacing="normal"
         word-spacing="normal"
         style="font-style:normal;font-variant:normal;font-weight:normal;font-stretch:normal;letter-spacing:normal;word-spacing:normal;text-anchor:start;fill:none;fill-opacity:1;fill-rule:evenodd;stroke:#000000;stroke-linecap:butt;stroke-linejoin:miter;stroke-miterlimit:10.43299961;stroke-dasharray:none;stroke-dashoffset:0;stroke-opacity:1"><path
           d="m 472.75,418.45 5.83,6.48 c 0.66,0.71 0.96,1.05 5.1,1.05 v 2.34 c -1.75,-0.11 -4.35,-0.15 -4.6,-0.15 -1.25,0 -3.73,0.11 -5.12,0.15 v -2.34 c 0.68,0 1.29,-0.11 1.89,-0.45 -0.21,-0.3 -0.21,-0.39 -0.41,-0.6 l -4.17,-4.68 -4.89,5.73 h 2 v 2.34 c -1.3,-0.04 -4.44,-0.15 -6.03,-0.15 -1.6,0 -3.85,0.11 -5.49,0.15 v -2.34 h 3.53 l 7.79,-9.17 -6.54,-7.33 c -0.84,-0.94 -2.64,-0.94 -5.03,-0.94 v -2.34 c 1.75,0.09 4.35,0.16 4.58,0.16 1.25,0 4.14,-0.11 5.14,-0.16 v 2.34 c -0.89,0 -1.84,0.25 -1.84,0.55 0,0.05 0,0.09 0.34,0.5 l 4.85,5.42 5.46,-6.47 h -1.93 v -2.34 c 1.29,0.05 4.33,0.16 5.98,0.16 1.6,0 3.83,-0.11 5.47,-0.16 v 2.34 h -3.53 z"
           id="path5905"
           inkscape:connector-curvature="0"
           style="fill:#000000;stroke-width:0" /></g>    </g>
    <g
       id="g6199"
       transform="matrix(0.7,0,0,0.7,-16.346946,226.97869)">
      <g
         word-spacing="normal"
         letter-spacing="normal"
         font-size-adjust="none"
         font-stretch="normal"
         font-weight="normal"
         font-variant="normal"
         font-style="normal"
         stroke-miterlimit="10.433"
         xml:space="preserve"
         transform="matrix(0.11792857,0,0,-0.11792857,-20.6375,76.2)"
         id="g6197"
         style="font-style:normal;font-variant:normal;font-weight:normal;font-stretch:normal;letter-spacing:normal;word-spacing:normal;text-anchor:start;fill:none;fill-opacity:1;fill-rule:evenodd;stroke:#000000;stroke-linecap:butt;stroke-linejoin:miter;stroke-miterlimit:10.43299961;stroke-dasharray:none;stroke-dashoffset:0;stroke-opacity:1"><path
           id="path6195"
           d="M 479.63,425.98 488,437 c 0.55,0.68 0.6,0.73 2.35,0.89 1.19,0.14 1.48,0.14 2.89,0.14 h 1.44 v 2.34 c -2.1,-0.14 -4.54,-0.14 -6.68,-0.14 -1.93,0 -5.78,0 -7.57,0.14 v -2.34 c 0.9,0 2.84,0 4.59,-0.55 -0.06,-0.09 -0.3,-0.39 -0.41,-0.55 l -6.57,-8.72 -7.13,9.82 h 4.14 v 2.34 c -2.05,-0.14 -6.78,-0.14 -9.01,-0.14 -2,0 -6.33,0 -8.08,0.14 v -2.34 h 4.89 l 11.06,-15.28 -10.08,-13.21 c -0.44,-0.61 -0.54,-0.7 -2.14,-0.86 -0.98,-0.09 -2.03,-0.14 -3.03,-0.14 h -1.45 v -2.34 c 2.09,0.16 4.54,0.16 6.68,0.16 1.94,0 5.79,0 7.57,-0.16 v 2.34 c -0.89,0 -2.83,0 -4.58,0.55 0.05,0.09 0.3,0.39 0.41,0.55 l 8.21,10.9 8.66,-12 h -4.12 v -2.34 c 2.04,0.16 6.76,0.16 9.01,0.16 1.99,0 6.33,0 8.06,-0.16 v 2.34 h -4.87 z"
           inkscape:connector-curvature="0"
           style="fill:#000000;stroke-width:0" /></g>    </g>
  </g>
</svg>
